<svg width="846" height="471" viewBox="0 0 846 471" fill="none" xmlns="http://www.w3.org/2000/svg">
<g clip-path="url(#clip0_47_2)">
<rect width="846" height="471" fill="#040404"/>
<rect x="-4" y="-4" width="850" height="20" fill="#141414"/>
<circle cx="7.5" cy="7.5" r="7.5" fill="#161616"/>
<rect x="1.80688" y="9.17285" width="11.961" height="1.89104" rx="0.94552" transform="rotate(-35 1.80688 9.17285)" fill="#838383"/>
<path d="M6.50391 5.88477L10.8416 2.84748C11.2692 2.54809 11.8585 2.652 12.1579 3.07959V3.07959C12.4573 3.50717 12.3534 4.0965 11.9258 4.3959L7.58812 7.43318L6.50391 5.88477Z" fill="url(#paint0_linear_47_2)"/>
<path d="M9.31934 6.23071L3.67371 10.1845C3.24615 10.4839 2.65681 10.3801 2.35738 9.95251V9.95251C2.05795 9.52495 2.16181 8.93561 2.58937 8.63617L8.235 4.68238L9.31934 6.23071Z" fill="url(#paint1_linear_47_2)"/>
<rect x="2.45068" y="5.33154" width="11.961" height="1.89104" rx="0.94552" transform="rotate(19.6401 2.45068 5.33154)" fill="#838383"/>
<path d="M7.85303 7.24951L12.8303 9.03125C13.3263 9.20881 13.5844 9.75486 13.4069 10.2509V10.2509C13.2293 10.7469 12.6833 11.0051 12.1873 10.8275L7.21001 9.04576L7.85303 7.24951Z" fill="url(#paint2_linear_47_2)"/>
<path d="M8.83984 9.64111L2.71384 7.44871C2.2178 7.27119 1.9596 6.72516 2.13712 6.22913V6.22913C2.31465 5.73309 2.86067 5.47489 3.35671 5.65241L9.48271 7.84482L8.83984 9.64111Z" fill="url(#paint3_linear_47_2)"/>
<path d="M23.369 9.988C23.4497 10.1347 23.4827 10.263 23.468 10.373C23.4607 10.483 23.4497 10.5747 23.435 10.648C23.413 10.7287 23.358 10.7983 23.27 10.857C23.1893 10.9083 23.0977 10.9487 22.995 10.978C22.863 11.0147 22.753 11.022 22.665 11C22.555 10.978 22.4633 10.9413 22.39 10.89C22.346 10.8533 22.3057 10.8203 22.269 10.791C22.2323 10.7543 22.1957 10.7213 22.159 10.692C22.1223 10.6553 22.0893 10.6223 22.06 10.593C22.0307 10.5637 22.0087 10.5343 21.994 10.505C21.9793 10.4757 21.9647 10.4573 21.95 10.45C21.9427 10.4353 21.9353 10.4243 21.928 10.417L20.465 8.305L19.013 10.417C19.0057 10.4243 18.9947 10.4353 18.98 10.45C18.9727 10.4573 18.958 10.4757 18.936 10.505C18.9213 10.5343 18.8993 10.5637 18.87 10.593C18.848 10.6223 18.8223 10.6553 18.793 10.692C18.7563 10.7213 18.716 10.7543 18.672 10.791C18.628 10.8203 18.5877 10.8533 18.551 10.89C18.507 10.9193 18.4593 10.9413 18.408 10.956C18.364 10.9707 18.32 10.9853 18.276 11C18.1807 11.022 18.078 11.0147 17.968 10.978C17.7407 10.9267 17.583 10.8167 17.495 10.648C17.451 10.56 17.4327 10.4683 17.44 10.373C17.4473 10.2703 17.4693 10.1677 17.506 10.065C17.55 9.96233 17.5977 9.86333 17.649 9.768C17.7077 9.67267 17.7663 9.581 17.825 9.493C17.8543 9.45633 17.88 9.42333 17.902 9.394C17.9313 9.36467 17.9607 9.33167 17.99 9.295C18.0853 9.17033 18.177 9.04567 18.265 8.921C18.353 8.789 18.4483 8.64967 18.551 8.503L19.574 7.018L18.067 4.84L17.935 4.653C17.9057 4.609 17.8763 4.56867 17.847 4.532C17.8177 4.49533 17.7883 4.45133 17.759 4.4C17.7297 4.36333 17.7003 4.323 17.671 4.279C17.6417 4.235 17.616 4.18367 17.594 4.125C17.572 4.081 17.55 4.04067 17.528 4.004C17.5133 3.96 17.4987 3.90867 17.484 3.85C17.462 3.762 17.4547 3.68133 17.462 3.608C17.484 3.51267 17.5317 3.432 17.605 3.366C17.6343 3.32933 17.6673 3.3 17.704 3.278C17.748 3.256 17.7883 3.234 17.825 3.212C17.8983 3.18267 17.9643 3.16067 18.023 3.146C18.0817 3.13133 18.144 3.124 18.21 3.124C18.342 3.13133 18.4667 3.179 18.584 3.267C18.7307 3.36233 18.8627 3.47967 18.98 3.619C19.0313 3.69967 19.0827 3.77667 19.134 3.85C19.1853 3.916 19.2403 3.98567 19.299 4.059L19.31 4.103C19.4933 4.345 19.6583 4.57967 19.805 4.807C19.959 5.027 20.1277 5.26167 20.311 5.511C20.3403 5.54767 20.366 5.58433 20.388 5.621C20.41 5.65767 20.4357 5.69433 20.465 5.731C20.4943 5.69433 20.52 5.65767 20.542 5.621C20.564 5.58433 20.5897 5.54767 20.619 5.511C20.7877 5.26167 20.949 5.027 21.103 4.807C21.2643 4.57967 21.433 4.345 21.609 4.103L21.631 4.059C21.6897 3.98567 21.7447 3.916 21.796 3.85C21.8547 3.77667 21.9097 3.69967 21.961 3.619C22.0783 3.47967 22.2103 3.36233 22.357 3.267C22.467 3.179 22.5917 3.13133 22.731 3.124C22.8483 3.124 22.973 3.15333 23.105 3.212C23.193 3.26333 23.259 3.31467 23.303 3.366C23.391 3.432 23.446 3.51267 23.468 3.608C23.4753 3.68133 23.468 3.762 23.446 3.85C23.4313 3.90867 23.413 3.96 23.391 4.004C23.3763 4.04067 23.3507 4.081 23.314 4.125C23.27 4.235 23.2223 4.32667 23.171 4.4C23.1417 4.45133 23.1123 4.49533 23.083 4.532C23.0537 4.56867 23.028 4.609 23.006 4.653L22.874 4.84L21.356 7.018L22.379 8.503L22.973 9.339C23.039 9.449 23.105 9.55533 23.171 9.658C23.237 9.76067 23.303 9.87067 23.369 9.988ZM26.206 3.058C26.2573 3.04333 26.305 3.03233 26.349 3.025C26.393 3.01033 26.437 2.99933 26.481 2.992C26.5323 2.97733 26.5946 2.97 26.668 2.97C26.7486 2.96267 26.822 2.96633 26.888 2.981C26.9613 2.98833 27.0273 3.01033 27.086 3.047C27.152 3.07633 27.1996 3.124 27.229 3.19C27.2583 3.26333 27.2766 3.35133 27.284 3.454C27.2986 3.54933 27.306 3.64833 27.306 3.751C27.306 3.85367 27.3023 3.95633 27.295 4.059C27.295 4.15433 27.295 4.24233 27.295 4.323V9.944C27.295 10.0247 27.295 10.109 27.295 10.197C27.3023 10.2777 27.3023 10.362 27.295 10.45C27.2876 10.538 27.2656 10.6223 27.229 10.703C27.1923 10.7763 27.1373 10.8387 27.064 10.89C26.9613 10.9707 26.822 11.011 26.646 11.011C26.4773 11.0183 26.3306 11 26.206 10.956C26.074 10.912 25.9933 10.8277 25.964 10.703C25.942 10.5783 25.931 10.4537 25.931 10.329C25.8796 9.361 25.854 8.415 25.854 7.491C25.8613 6.55967 25.865 5.60267 25.865 4.62C25.8503 4.65667 25.799 4.68967 25.711 4.719C25.6303 4.74833 25.535 4.774 25.425 4.796C25.3223 4.818 25.2233 4.83633 25.128 4.851C25.0326 4.86567 24.9703 4.873 24.941 4.873C24.7503 4.895 24.5743 4.87667 24.413 4.818C24.259 4.752 24.171 4.60533 24.149 4.378C24.1196 4.14333 24.171 3.96 24.303 3.828C24.4423 3.696 24.6183 3.597 24.831 3.531C25.0656 3.45033 25.293 3.36967 25.513 3.289C25.7403 3.201 25.9713 3.124 26.206 3.058ZM30.8274 3.476C31.3188 3.29267 31.7624 3.212 32.1584 3.234C32.5618 3.256 32.9211 3.35867 33.2364 3.542C33.5518 3.718 33.8194 3.95633 34.0394 4.257C34.2668 4.55767 34.4501 4.895 34.5894 5.269C34.6994 5.54767 34.7838 5.841 34.8424 6.149C34.9011 6.457 34.9341 6.765 34.9414 7.073C34.9561 7.37367 34.9451 7.67067 34.9084 7.964C34.8791 8.25733 34.8278 8.52867 34.7544 8.778C34.7104 8.94667 34.6591 9.10067 34.6004 9.24C34.5418 9.37933 34.4721 9.51867 34.3914 9.658C34.2081 9.97333 33.9698 10.23 33.6764 10.428C33.3904 10.626 33.0751 10.7653 32.7304 10.846C32.4958 10.9047 32.2538 10.934 32.0044 10.934C31.7551 10.9267 31.5094 10.8937 31.2674 10.835C31.0254 10.769 30.7908 10.6773 30.5634 10.56C30.3434 10.4353 30.1418 10.2813 29.9584 10.098C29.7311 9.878 29.5441 9.625 29.3974 9.339C29.2508 9.04567 29.1371 8.74133 29.0564 8.426C28.9758 8.10333 28.9244 7.78067 28.9024 7.458C28.8804 7.13533 28.8804 6.82733 28.9024 6.534C28.9244 6.26267 28.9758 5.973 29.0564 5.665C29.1444 5.357 29.2691 5.06 29.4304 4.774C29.5918 4.488 29.7861 4.23133 30.0134 4.004C30.2481 3.76933 30.5194 3.59333 30.8274 3.476ZM33.4014 8.184C33.4894 7.83933 33.5261 7.45067 33.5114 7.018C33.4968 6.58533 33.4271 6.17833 33.3024 5.797C33.2218 5.56233 33.1191 5.357 32.9944 5.181C32.8771 4.99767 32.7341 4.85833 32.5654 4.763C32.4041 4.66767 32.2134 4.62 31.9934 4.62C31.7734 4.62 31.5278 4.686 31.2564 4.818C31.0951 4.89867 30.9558 5.00867 30.8384 5.148C30.7284 5.28733 30.6368 5.445 30.5634 5.621C30.4974 5.797 30.4424 5.98033 30.3984 6.171C30.3618 6.36167 30.3398 6.545 30.3324 6.721C30.3178 6.91167 30.3141 7.11333 30.3214 7.326C30.3288 7.53133 30.3508 7.74033 30.3874 7.953C30.4314 8.15833 30.4901 8.35633 30.5634 8.547C30.6368 8.73033 30.7358 8.89533 30.8604 9.042C31.0511 9.262 31.2711 9.416 31.5204 9.504C31.7771 9.58467 32.0301 9.59567 32.2794 9.537C32.6828 9.449 32.9908 9.18133 33.2034 8.734C33.2914 8.57267 33.3574 8.38933 33.4014 8.184ZM41.5394 7.799C41.576 7.90167 41.6017 8.019 41.6164 8.151C41.6384 8.27567 41.6494 8.404 41.6494 8.536C41.6494 8.668 41.6384 8.8 41.6164 8.932C41.6017 9.05667 41.5797 9.16667 41.5504 9.262C41.433 9.67267 41.1984 10.0173 40.8464 10.296C40.4944 10.5673 40.091 10.7653 39.6364 10.89C39.189 11.0147 38.7234 11.0587 38.2394 11.022C37.7627 10.9853 37.3374 10.8643 36.9634 10.659C36.7287 10.527 36.527 10.3657 36.3584 10.175C36.1897 9.98433 36.0467 9.77167 35.9294 9.537C35.8854 9.45633 35.856 9.36467 35.8414 9.262C35.834 9.152 35.845 9.04933 35.8744 8.954C35.9037 8.85133 35.9514 8.76333 36.0174 8.69C36.0834 8.60933 36.175 8.55433 36.2924 8.525C36.3657 8.51033 36.4464 8.503 36.5344 8.503C36.6297 8.503 36.7214 8.51767 36.8094 8.547C36.8974 8.569 36.978 8.60933 37.0514 8.668C37.1247 8.71933 37.1834 8.79267 37.2274 8.888C37.308 9.042 37.4217 9.185 37.5684 9.317C37.7224 9.44167 37.8837 9.54433 38.0524 9.625C38.2944 9.70567 38.5364 9.73867 38.7784 9.724C39.0277 9.70933 39.2514 9.65433 39.4494 9.559C39.6547 9.46367 39.8197 9.33533 39.9444 9.174C40.069 9.00533 40.1314 8.81467 40.1314 8.602C40.1314 8.426 40.1057 8.283 40.0544 8.173C40.003 8.05567 39.9297 7.96033 39.8344 7.887C39.7464 7.80633 39.6364 7.74033 39.5044 7.689C39.3797 7.63767 39.2404 7.59367 39.0864 7.557C38.9104 7.52033 38.7307 7.49467 38.5474 7.48C38.3714 7.46533 38.1917 7.447 38.0084 7.425C37.825 7.403 37.6454 7.37367 37.4694 7.337C37.2934 7.30033 37.121 7.24533 36.9524 7.172C36.615 7.03267 36.3584 6.82 36.1824 6.534C36.0064 6.248 35.9 5.94 35.8634 5.61C35.834 5.28 35.8744 4.95367 35.9844 4.631C36.0944 4.301 36.2704 4.01867 36.5124 3.784C36.747 3.57133 37.0257 3.421 37.3484 3.333C37.6784 3.23767 38.0414 3.18267 38.4374 3.168C38.6574 3.16067 38.8774 3.168 39.0974 3.19C39.3247 3.212 39.541 3.24867 39.7464 3.3C39.959 3.35133 40.1534 3.41733 40.3294 3.498C40.5127 3.57867 40.6704 3.674 40.8024 3.784C40.8977 3.85733 40.993 3.95633 41.0884 4.081C41.1837 4.19833 41.257 4.32667 41.3084 4.466C41.3597 4.598 41.3744 4.72633 41.3524 4.851C41.3377 4.97567 41.2607 5.082 41.1214 5.17C41.004 5.24333 40.8904 5.27633 40.7804 5.269C40.6777 5.25433 40.5787 5.22133 40.4834 5.17C40.388 5.11133 40.2964 5.04533 40.2084 4.972C40.1204 4.89867 40.0397 4.83267 39.9664 4.774C39.7684 4.62733 39.5227 4.52833 39.2294 4.477C38.936 4.42567 38.661 4.41467 38.4044 4.444C38.243 4.466 38.0927 4.50267 37.9534 4.554C37.814 4.60533 37.693 4.675 37.5904 4.763C37.495 4.851 37.418 4.961 37.3594 5.093C37.308 5.21767 37.2897 5.36067 37.3044 5.522C37.3117 5.63933 37.3447 5.73833 37.4034 5.819C37.4694 5.89967 37.5464 5.96567 37.6344 6.017C37.7297 6.06833 37.8324 6.10867 37.9424 6.138C38.0524 6.16733 38.1624 6.18933 38.2724 6.204C38.6024 6.248 38.9324 6.281 39.2624 6.303C39.5924 6.325 39.915 6.39833 40.2304 6.523C40.553 6.64767 40.828 6.81633 41.0554 7.029C41.2827 7.24167 41.444 7.49833 41.5394 7.799ZM47.6158 10.164C47.6304 10.2007 47.6378 10.2557 47.6378 10.329C47.6378 10.395 47.6378 10.45 47.6378 10.494C47.6378 10.5527 47.6268 10.6077 47.6048 10.659C47.5828 10.7103 47.5534 10.758 47.5168 10.802C47.4508 10.89 47.3554 10.956 47.2308 11C47.0548 11.0587 46.8898 11.088 46.7358 11.088C46.6551 11.0953 46.5708 11.099 46.4828 11.099C46.3948 11.099 46.3068 11.1063 46.2188 11.121H46.1748C45.6101 11.1283 45.0271 11.1283 44.4258 11.121C44.2791 11.1137 44.1141 11.1137 43.9308 11.121C43.7474 11.1357 43.5678 11.132 43.3918 11.11C43.2158 11.0953 43.0544 11.055 42.9078 10.989C42.7684 10.9157 42.6694 10.802 42.6108 10.648C42.5961 10.6113 42.5851 10.5783 42.5778 10.549C42.5704 10.5123 42.5668 10.4757 42.5668 10.439C42.5374 10.1897 42.5264 9.944 42.5338 9.702C42.5411 9.46 42.5448 9.22167 42.5448 8.987L42.5668 7.392V5.918C42.5668 5.654 42.5668 5.41933 42.5668 5.214C42.5741 5.00867 42.5814 4.78133 42.5888 4.532V4.477C42.5961 4.40367 42.5998 4.33033 42.5998 4.257C42.6071 4.18367 42.6108 4.11033 42.6108 4.037C42.6254 3.86833 42.6658 3.72533 42.7318 3.608C42.7758 3.498 42.8528 3.41 42.9628 3.344C43.0581 3.278 43.1718 3.245 43.3038 3.245C43.3551 3.245 43.4028 3.24867 43.4468 3.256C43.4981 3.256 43.5458 3.25967 43.5898 3.267C43.6338 3.27433 43.6741 3.289 43.7107 3.311C43.7548 3.333 43.7988 3.36233 43.8428 3.399C43.8868 3.45033 43.9271 3.51267 43.9638 3.586C43.9931 3.66667 44.0114 3.74733 44.0188 3.828C44.0261 3.87933 44.0334 3.927 44.0408 3.971C44.0481 4.015 44.0518 4.059 44.0518 4.103C44.0371 4.147 44.0298 4.191 44.0298 4.235C44.0298 4.279 44.0298 4.31933 44.0298 4.356V4.554L43.9858 9.735L46.1638 9.757H46.6808C46.7248 9.757 46.7724 9.76067 46.8238 9.768C46.8751 9.768 46.9264 9.77167 46.9778 9.779C47.0364 9.78633 47.0878 9.79367 47.1318 9.801C47.1758 9.80833 47.2198 9.81933 47.2638 9.834C47.3444 9.856 47.4104 9.89267 47.4618 9.944C47.5424 10.0173 47.5938 10.0907 47.6158 10.164ZM55.3041 10.252C55.3115 10.296 55.3151 10.34 55.3151 10.384C55.3225 10.4207 55.3261 10.4647 55.3261 10.516C55.3261 10.604 55.3005 10.6847 55.2491 10.758C55.2271 10.7947 55.1978 10.8313 55.1611 10.868C55.1245 10.8973 55.0805 10.923 55.0291 10.945C54.8458 11.0477 54.6515 11.0843 54.4461 11.055C54.3435 11.0257 54.2518 10.978 54.1711 10.912C54.1565 10.8973 54.1455 10.89 54.1381 10.89C54.1308 10.8827 54.1235 10.8717 54.1161 10.857C54.1088 10.8497 54.1015 10.8423 54.0941 10.835C54.0868 10.8203 54.0758 10.8093 54.0611 10.802C54.0245 10.7653 53.9951 10.7323 53.9731 10.703C53.9511 10.6663 53.9291 10.6297 53.9071 10.593C53.8925 10.5563 53.8741 10.5233 53.8521 10.494C53.8375 10.4573 53.8191 10.4207 53.7971 10.384C53.7825 10.3547 53.7678 10.329 53.7531 10.307C53.7385 10.2777 53.7275 10.2483 53.7201 10.219C53.6908 10.153 53.6725 10.0943 53.6651 10.043L53.4341 9.504C52.9281 9.504 52.4221 9.50767 51.9161 9.515C51.4175 9.515 50.9151 9.51133 50.4091 9.504L50.1781 10.043C50.1635 10.0723 50.1525 10.1017 50.1451 10.131C50.1451 10.1603 50.1378 10.1897 50.1231 10.219C50.1085 10.2483 50.0938 10.2777 50.0791 10.307C50.0718 10.329 50.0608 10.3547 50.0461 10.384C50.0241 10.4207 50.0021 10.4573 49.9801 10.494C49.9655 10.5233 49.9471 10.5563 49.9251 10.593C49.9105 10.6297 49.8921 10.6663 49.8701 10.703C49.8481 10.7323 49.8188 10.7653 49.7821 10.802C49.7675 10.8093 49.7565 10.8203 49.7491 10.835C49.7418 10.8423 49.7345 10.8497 49.7271 10.857C49.7198 10.8717 49.7125 10.8827 49.7051 10.89C49.6978 10.89 49.6868 10.8973 49.6721 10.912C49.5915 10.978 49.4998 11.0257 49.3971 11.055C49.1918 11.0843 48.9975 11.0477 48.8141 10.945C48.7628 10.923 48.7188 10.8973 48.6821 10.868C48.6455 10.8313 48.6161 10.7947 48.5941 10.758C48.5428 10.6847 48.5171 10.604 48.5171 10.516C48.5171 10.4647 48.5171 10.4207 48.5171 10.384C48.5245 10.34 48.5318 10.296 48.5391 10.252C48.5538 10.186 48.5721 10.12 48.5941 10.054C48.6161 9.988 48.6271 9.955 48.6271 9.955L50.9151 4.323L50.9811 4.147C50.9958 4.103 51.0141 4.06267 51.0361 4.026C51.0581 3.98933 51.0765 3.94533 51.0911 3.894C51.1278 3.79867 51.1681 3.71433 51.2121 3.641C51.2341 3.597 51.2598 3.55667 51.2891 3.52C51.3185 3.48333 51.3478 3.44667 51.3771 3.41C51.4211 3.35133 51.4835 3.30367 51.5641 3.267C51.6668 3.23033 51.7841 3.212 51.9161 3.212C52.0555 3.212 52.1765 3.23033 52.2791 3.267C52.3598 3.30367 52.4221 3.35133 52.4661 3.41C52.5175 3.476 52.5725 3.553 52.6311 3.641C52.6751 3.71433 52.7155 3.79867 52.7521 3.894C52.7668 3.94533 52.7851 3.98933 52.8071 4.026C52.8291 4.06267 52.8475 4.103 52.8621 4.147L52.9281 4.323L55.2161 9.955C55.2161 9.955 55.2271 9.988 55.2491 10.054C55.2711 10.12 55.2895 10.186 55.3041 10.252ZM52.6971 7.557C52.6018 7.34433 52.5028 7.12433 52.4001 6.897C52.3048 6.66967 52.2021 6.43867 52.0921 6.204C52.0628 6.138 52.0335 6.072 52.0041 6.006C51.9748 5.93267 51.9455 5.863 51.9161 5.797C51.8941 5.863 51.8685 5.93267 51.8391 6.006C51.8098 6.072 51.7805 6.138 51.7511 6.204C51.6411 6.43867 51.5348 6.66967 51.4321 6.897C51.3368 7.12433 51.2415 7.34433 51.1461 7.557L50.9481 8.041H52.8951L52.6971 7.557ZM60.5426 6.941C60.7552 7.08033 60.9349 7.24533 61.0816 7.436C61.2356 7.61933 61.3566 7.84667 61.4446 8.118C61.5399 8.41867 61.5876 8.723 61.5876 9.031C61.5949 9.33167 61.5399 9.614 61.4226 9.878C61.3126 10.1347 61.1329 10.362 60.8836 10.56C60.6416 10.7507 60.3226 10.8863 59.9266 10.967C59.7139 11.0183 59.4646 11.0587 59.1786 11.088C58.8926 11.1173 58.6359 11.132 58.4086 11.132C58.1226 11.1393 57.8256 11.1393 57.5176 11.132C57.2169 11.132 56.9236 11.1027 56.6376 11.044C56.5129 11.0073 56.4212 10.945 56.3626 10.857C56.3112 10.7617 56.2746 10.6553 56.2526 10.538C56.2232 10.472 56.2086 10.406 56.2086 10.34V4.092C56.2086 3.88667 56.2489 3.729 56.3296 3.619C56.4176 3.50167 56.5312 3.41733 56.6706 3.366C56.8099 3.30733 56.9676 3.27433 57.1436 3.267C57.3196 3.25233 57.5029 3.245 57.6936 3.245C57.8402 3.245 57.9869 3.245 58.1336 3.245C58.2876 3.23767 58.4416 3.23767 58.5956 3.245C58.8376 3.25233 59.0869 3.27433 59.3436 3.311C59.6076 3.34033 59.8569 3.399 60.0916 3.487C60.2016 3.52367 60.3189 3.575 60.4436 3.641C60.5682 3.69967 60.6672 3.773 60.7406 3.861C60.9752 4.07367 61.1476 4.323 61.2576 4.609C61.3749 4.88767 61.4262 5.17367 61.4116 5.467C61.3969 5.753 61.3162 6.028 61.1696 6.292C61.0302 6.556 60.8212 6.77233 60.5426 6.941ZM58.6176 9.856C58.8449 9.84133 59.0759 9.81567 59.3106 9.779C59.5452 9.74233 59.7066 9.67267 59.7946 9.57C59.8899 9.45267 59.9559 9.317 59.9926 9.163C60.0366 9.00167 60.0476 8.84033 60.0256 8.679C60.0109 8.51033 59.9632 8.35267 59.8826 8.206C59.8092 8.052 59.7102 7.931 59.5856 7.843C59.4169 7.711 59.2226 7.62667 59.0026 7.59C58.7826 7.546 58.5662 7.524 58.3536 7.524C58.2509 7.524 58.1556 7.52767 58.0676 7.535C57.9869 7.535 57.9136 7.546 57.8476 7.568C57.7889 7.58267 57.7449 7.61567 57.7156 7.667C57.6862 7.71833 57.6716 7.79533 57.6716 7.898C57.6862 8.08867 57.6862 8.27933 57.6716 8.47C57.6569 8.66067 57.6496 8.844 57.6496 9.02C57.6496 9.12267 57.6459 9.23633 57.6386 9.361C57.6386 9.47833 57.6789 9.57733 57.7596 9.658C57.8402 9.73867 57.9576 9.79367 58.1116 9.823C58.2656 9.85233 58.4342 9.86333 58.6176 9.856ZM58.8376 4.576C58.6102 4.56867 58.4196 4.565 58.2656 4.565C58.1189 4.55767 58.0016 4.56867 57.9136 4.598C57.8329 4.62 57.7742 4.675 57.7376 4.763C57.7082 4.84367 57.6972 4.96833 57.7046 5.137C57.7046 5.27633 57.7009 5.41567 57.6936 5.555C57.6936 5.687 57.6936 5.819 57.6936 5.951C57.6936 6.09767 57.7412 6.20767 57.8366 6.281C57.9319 6.347 58.0492 6.38733 58.1886 6.402C58.3352 6.41667 58.4856 6.41667 58.6396 6.402C58.8009 6.38733 58.9402 6.369 59.0576 6.347C59.3216 6.303 59.5232 6.215 59.6626 6.083C59.8092 5.94367 59.8936 5.742 59.9156 5.478C59.9449 5.148 59.8569 4.92067 59.6516 4.796C59.4536 4.664 59.1822 4.59067 58.8376 4.576ZM68.0296 7.799C68.0663 7.90167 68.0919 8.019 68.1066 8.151C68.1286 8.27567 68.1396 8.404 68.1396 8.536C68.1396 8.668 68.1286 8.8 68.1066 8.932C68.0919 9.05667 68.0699 9.16667 68.0406 9.262C67.9233 9.67267 67.6886 10.0173 67.3366 10.296C66.9846 10.5673 66.5813 10.7653 66.1266 10.89C65.6793 11.0147 65.2136 11.0587 64.7296 11.022C64.2529 10.9853 63.8276 10.8643 63.4536 10.659C63.2189 10.527 63.0173 10.3657 62.8486 10.175C62.6799 9.98433 62.5369 9.77167 62.4196 9.537C62.3756 9.45633 62.3463 9.36467 62.3316 9.262C62.3243 9.152 62.3353 9.04933 62.3646 8.954C62.3939 8.85133 62.4416 8.76333 62.5076 8.69C62.5736 8.60933 62.6653 8.55433 62.7826 8.525C62.8559 8.51033 62.9366 8.503 63.0246 8.503C63.1199 8.503 63.2116 8.51767 63.2996 8.547C63.3876 8.569 63.4683 8.60933 63.5416 8.668C63.6149 8.71933 63.6736 8.79267 63.7176 8.888C63.7983 9.042 63.9119 9.185 64.0586 9.317C64.2126 9.44167 64.3739 9.54433 64.5426 9.625C64.7846 9.70567 65.0266 9.73867 65.2686 9.724C65.5179 9.70933 65.7416 9.65433 65.9396 9.559C66.1449 9.46367 66.3099 9.33533 66.4346 9.174C66.5593 9.00533 66.6216 8.81467 66.6216 8.602C66.6216 8.426 66.5959 8.283 66.5446 8.173C66.4933 8.05567 66.4199 7.96033 66.3246 7.887C66.2366 7.80633 66.1266 7.74033 65.9946 7.689C65.8699 7.63767 65.7306 7.59367 65.5766 7.557C65.4006 7.52033 65.2209 7.49467 65.0376 7.48C64.8616 7.46533 64.6819 7.447 64.4986 7.425C64.3153 7.403 64.1356 7.37367 63.9596 7.337C63.7836 7.30033 63.6113 7.24533 63.4426 7.172C63.1053 7.03267 62.8486 6.82 62.6726 6.534C62.4966 6.248 62.3903 5.94 62.3536 5.61C62.3243 5.28 62.3646 4.95367 62.4746 4.631C62.5846 4.301 62.7606 4.01867 63.0026 3.784C63.2373 3.57133 63.5159 3.421 63.8386 3.333C64.1686 3.23767 64.5316 3.18267 64.9276 3.168C65.1476 3.16067 65.3676 3.168 65.5876 3.19C65.8149 3.212 66.0313 3.24867 66.2366 3.3C66.4493 3.35133 66.6436 3.41733 66.8196 3.498C67.0029 3.57867 67.1606 3.674 67.2926 3.784C67.3879 3.85733 67.4833 3.95633 67.5786 4.081C67.6739 4.19833 67.7473 4.32667 67.7986 4.466C67.8499 4.598 67.8646 4.72633 67.8426 4.851C67.8279 4.97567 67.7509 5.082 67.6116 5.17C67.4943 5.24333 67.3806 5.27633 67.2706 5.269C67.1679 5.25433 67.0689 5.22133 66.9736 5.17C66.8783 5.11133 66.7866 5.04533 66.6986 4.972C66.6106 4.89867 66.5299 4.83267 66.4566 4.774C66.2586 4.62733 66.0129 4.52833 65.7196 4.477C65.4263 4.42567 65.1513 4.41467 64.8946 4.444C64.7333 4.466 64.5829 4.50267 64.4436 4.554C64.3043 4.60533 64.1833 4.675 64.0806 4.763C63.9853 4.851 63.9083 4.961 63.8496 5.093C63.7983 5.21767 63.7799 5.36067 63.7946 5.522C63.8019 5.63933 63.8349 5.73833 63.8936 5.819C63.9596 5.89967 64.0366 5.96567 64.1246 6.017C64.2199 6.06833 64.3226 6.10867 64.4326 6.138C64.5426 6.16733 64.6526 6.18933 64.7626 6.204C65.0926 6.248 65.4226 6.281 65.7526 6.303C66.0826 6.325 66.4053 6.39833 66.7206 6.523C67.0433 6.64767 67.3183 6.81633 67.5456 7.029C67.7729 7.24167 67.9343 7.49833 68.0296 7.799Z" fill="#BABABA"/>
<rect x="801" y="6" width="11" height="1" fill="#D9D9D9"/>
<rect x="833" y="9.77808" width="11" height="1" transform="rotate(-45 833 9.77808)" fill="#D9D9D9"/>
<rect x="833.707" y="2" width="11" height="1" transform="rotate(45 833.707 2)" fill="#D9D9D9"/>
<rect x="818" y="10" width="9" height="1" fill="#D9D9D9"/>
<rect x="818" y="2" width="9" height="1" fill="#D9D9D9"/>
<rect x="818" y="11" width="9" height="1" transform="rotate(-90 818 11)" fill="#D9D9D9"/>
<rect x="826" y="11" width="9" height="1" transform="rotate(-90 826 11)" fill="#D9D9D9"/>
<path d="M0 16H37C42.5228 16 47 20.4772 47 26V461C47 466.523 42.5228 471 37 471H0V16Z" fill="#232323"/>
<circle cx="23" cy="46" r="20" fill="#003902"/>
<g filter="url(#filter0_df_47_2)">
<circle cx="23" cy="46" r="20" fill="#003902"/>
</g>
<path d="M5.35866 74V70.3636H6.0174V73.4478H7.61896V74H5.35866ZM9.90057 72.853V71.2727H10.5433V74H9.9201V73.5153H9.89169C9.83014 73.668 9.72893 73.7929 9.58807 73.8899C9.44839 73.987 9.27616 74.0355 9.07138 74.0355C8.89264 74.0355 8.73461 73.9959 8.5973 73.9165C8.46117 73.8361 8.35464 73.7195 8.2777 73.5668C8.20076 73.4129 8.16229 73.227 8.16229 73.0092V71.2727H8.80504V72.9098C8.80504 73.0826 8.85239 73.2199 8.94709 73.3217C9.04179 73.4235 9.16607 73.4744 9.31996 73.4744C9.41465 73.4744 9.50639 73.4513 9.59517 73.4052C9.68395 73.359 9.75675 73.2904 9.81357 73.1992C9.87157 73.1069 9.90057 72.9915 9.90057 72.853ZM11.7902 73.1442L11.7884 72.3683H11.8914L12.8715 71.2727H13.6226L12.417 72.6151H12.2838L11.7902 73.1442ZM11.2043 74V70.3636H11.847V74H11.2043ZM12.9159 74L12.0281 72.7589L12.4614 72.3061L13.6847 74H12.9159ZM14.8358 74.055C14.6629 74.055 14.5073 74.0243 14.3688 73.9627C14.2315 73.9 14.1226 73.8076 14.0421 73.6857C13.9628 73.5638 13.9231 73.4135 13.9231 73.2347C13.9231 73.0808 13.9515 72.9536 14.0083 72.853C14.0652 72.7524 14.1427 72.6719 14.2409 72.6115C14.3392 72.5511 14.4499 72.5056 14.573 72.4748C14.6973 72.4428 14.8257 72.4197 14.9583 72.4055C15.1181 72.389 15.2477 72.3742 15.3471 72.3612C15.4466 72.3469 15.5188 72.3256 15.5637 72.2972C15.6099 72.2676 15.633 72.2221 15.633 72.1605V72.1499C15.633 72.0161 15.5933 71.9125 15.514 71.8391C15.4347 71.7657 15.3205 71.729 15.1713 71.729C15.0139 71.729 14.889 71.7634 14.7967 71.832C14.7056 71.9007 14.644 71.9818 14.612 72.0753L14.0119 71.9901C14.0592 71.8243 14.1374 71.6858 14.2463 71.5746C14.3552 71.4621 14.4883 71.3781 14.6458 71.3224C14.8032 71.2656 14.9772 71.2372 15.1678 71.2372C15.2992 71.2372 15.43 71.2526 15.5602 71.2834C15.6904 71.3142 15.8094 71.3651 15.9171 71.4361C16.0248 71.5059 16.1112 71.6012 16.1763 71.7219C16.2426 71.8427 16.2757 71.9936 16.2757 72.1747V74H15.6578V73.6254H15.6365C15.5975 73.7011 15.5424 73.7721 15.4714 73.8384C15.4016 73.9035 15.3134 73.9562 15.2069 73.9964C15.1015 74.0355 14.9778 74.055 14.8358 74.055ZM15.0027 73.5827C15.1317 73.5827 15.2435 73.5573 15.3382 73.5064C15.4329 73.4543 15.5057 73.3857 15.5566 73.3004C15.6087 73.2152 15.6348 73.1223 15.6348 73.0217V72.7003C15.6146 72.7169 15.5803 72.7322 15.5318 72.7464C15.4844 72.7607 15.4312 72.7731 15.372 72.7837C15.3128 72.7944 15.2542 72.8039 15.1962 72.8121C15.1382 72.8204 15.0879 72.8275 15.0453 72.8335C14.9494 72.8465 14.8636 72.8678 14.7878 72.8974C14.7121 72.927 14.6523 72.9684 14.6085 73.0217C14.5647 73.0737 14.5428 73.1412 14.5428 73.2241C14.5428 73.3424 14.586 73.4318 14.6724 73.4922C14.7588 73.5526 14.8689 73.5827 15.0027 73.5827ZM17.5648 72.402V74H16.9221V71.2727H17.5364V71.7362H17.5684C17.6311 71.5835 17.7311 71.4621 17.8684 71.3722C18.0069 71.2822 18.178 71.2372 18.3816 71.2372C18.5698 71.2372 18.7337 71.2775 18.8734 71.358C19.0143 71.4384 19.1232 71.555 19.2001 71.7077C19.2782 71.8604 19.3167 72.0457 19.3155 72.2635V74H18.6728V72.3629C18.6728 72.1806 18.6254 72.038 18.5307 71.935C18.4372 71.832 18.3076 71.7805 18.1419 71.7805C18.0294 71.7805 17.9294 71.8054 17.8418 71.8551C17.7554 71.9036 17.6873 71.9741 17.6376 72.0664C17.5891 72.1587 17.5648 72.2706 17.5648 72.402ZM23.2138 71.3633C23.1972 71.2082 23.1274 71.0875 23.0043 71.0011C22.8823 70.9147 22.7237 70.8714 22.5284 70.8714C22.3911 70.8714 22.2733 70.8922 22.1751 70.9336C22.0768 70.975 22.0017 71.0312 21.9496 71.1023C21.8975 71.1733 21.8709 71.2544 21.8697 71.3455C21.8697 71.4213 21.8868 71.487 21.9212 71.5426C21.9567 71.5982 22.0046 71.6456 22.065 71.6847C22.1254 71.7225 22.1922 71.7545 22.2656 71.7805C22.339 71.8066 22.413 71.8285 22.4876 71.8462L22.8285 71.9315C22.9658 71.9634 23.0978 72.0066 23.2244 72.0611C23.3523 72.1155 23.4665 72.1842 23.5671 72.267C23.6689 72.3499 23.7494 72.4499 23.8086 72.5671C23.8678 72.6843 23.8974 72.8216 23.8974 72.979C23.8974 73.1921 23.8429 73.3797 23.734 73.5419C23.6251 73.7029 23.4677 73.829 23.2617 73.9201C23.0569 74.0101 22.8089 74.055 22.5178 74.055C22.2348 74.055 21.9892 74.0112 21.7809 73.9237C21.5737 73.8361 21.4116 73.7082 21.2944 73.5401C21.1784 73.372 21.1156 73.1673 21.1062 72.9258H21.7543C21.7637 73.0524 21.8028 73.1578 21.8714 73.2418C21.9401 73.3259 22.0295 73.3886 22.1396 73.43C22.2508 73.4715 22.3751 73.4922 22.5124 73.4922C22.6557 73.4922 22.7811 73.4709 22.8888 73.4283C22.9978 73.3845 23.083 73.3241 23.1445 73.2472C23.2061 73.169 23.2375 73.0779 23.2386 72.9737C23.2375 72.879 23.2096 72.8009 23.1552 72.7393C23.1007 72.6766 23.0244 72.6245 22.9261 72.5831C22.8291 72.5405 22.7154 72.5026 22.5852 72.4695L22.1715 72.3629C21.872 72.286 21.6353 72.1694 21.4613 72.0131C21.2885 71.8557 21.2021 71.6468 21.2021 71.3864C21.2021 71.1721 21.2601 70.9845 21.3761 70.8235C21.4933 70.6625 21.6525 70.5376 21.8537 70.4489C22.0549 70.3589 22.2828 70.3139 22.5373 70.3139C22.7953 70.3139 23.0214 70.3589 23.2156 70.4489C23.4109 70.5376 23.5642 70.6613 23.6754 70.82C23.7867 70.9774 23.8441 71.1585 23.8477 71.3633H23.2138ZM25.099 72.402V74H24.4562V71.2727H25.0706V71.7362H25.1025C25.1653 71.5835 25.2653 71.4621 25.4026 71.3722C25.5411 71.2822 25.7122 71.2372 25.9157 71.2372C26.104 71.2372 26.2679 71.2775 26.4076 71.358C26.5484 71.4384 26.6573 71.555 26.7343 71.7077C26.8124 71.8604 26.8509 72.0457 26.8497 72.2635V74H26.2069V72.3629C26.2069 72.1806 26.1596 72.038 26.0649 71.935C25.9714 71.832 25.8418 71.7805 25.676 71.7805C25.5636 71.7805 25.4636 71.8054 25.376 71.8551C25.2896 71.9036 25.2215 71.9741 25.1718 72.0664C25.1233 72.1587 25.099 72.2706 25.099 72.402ZM28.6927 74.0533C28.4264 74.0533 28.1956 73.9947 28.0003 73.8775C27.805 73.7603 27.6534 73.5964 27.5457 73.3857C27.4392 73.175 27.3859 72.9287 27.3859 72.647C27.3859 72.3653 27.4392 72.1185 27.5457 71.9066C27.6534 71.6947 27.805 71.5302 28.0003 71.413C28.1956 71.2958 28.4264 71.2372 28.6927 71.2372C28.9591 71.2372 29.1899 71.2958 29.3852 71.413C29.5805 71.5302 29.7314 71.6947 29.838 71.9066C29.9457 72.1185 29.9996 72.3653 29.9996 72.647C29.9996 72.9287 29.9457 73.175 29.838 73.3857C29.7314 73.5964 29.5805 73.7603 29.3852 73.8775C29.1899 73.9947 28.9591 74.0533 28.6927 74.0533ZM28.6963 73.5384C28.8407 73.5384 28.9614 73.4987 29.0585 73.4194C29.1556 73.3389 29.2278 73.2312 29.2751 73.0962C29.3237 72.9613 29.3479 72.811 29.3479 72.6452C29.3479 72.4783 29.3237 72.3274 29.2751 72.1925C29.2278 72.0563 29.1556 71.948 29.0585 71.8675C28.9614 71.7871 28.8407 71.7468 28.6963 71.7468C28.5483 71.7468 28.4252 71.7871 28.327 71.8675C28.2299 71.948 28.1571 72.0563 28.1086 72.1925C28.0612 72.3274 28.0376 72.4783 28.0376 72.6452C28.0376 72.811 28.0612 72.9613 28.1086 73.0962C28.1571 73.2312 28.2299 73.3389 28.327 73.4194C28.4252 73.4987 28.5483 73.5384 28.6963 73.5384ZM30.5451 75.0227V71.2727H31.1772V71.7237H31.2145C31.2476 71.6574 31.2944 71.587 31.3548 71.5124C31.4151 71.4367 31.4968 71.3722 31.5998 71.3189C31.7028 71.2644 31.8342 71.2372 31.994 71.2372C32.2047 71.2372 32.3946 71.2911 32.5639 71.3988C32.7344 71.5053 32.8693 71.6634 32.9688 71.8729C33.0694 72.0812 33.1197 72.3369 33.1197 72.6399C33.1197 72.9394 33.0705 73.1939 32.9723 73.4034C32.8741 73.6129 32.7403 73.7727 32.571 73.8828C32.4018 73.9929 32.21 74.0479 31.9957 74.0479C31.8395 74.0479 31.7099 74.0219 31.6069 73.9698C31.5039 73.9177 31.421 73.855 31.3583 73.7816C31.2968 73.707 31.2488 73.6366 31.2145 73.5703H31.1879V75.0227H30.5451ZM31.1754 72.6364C31.1754 72.8127 31.2003 72.9672 31.25 73.0998C31.3009 73.2324 31.3737 73.3359 31.4684 73.4105C31.5643 73.4839 31.6803 73.5206 31.8164 73.5206C31.9585 73.5206 32.0774 73.4827 32.1733 73.407C32.2692 73.33 32.3414 73.2253 32.3899 73.0927C32.4396 72.9589 32.4645 72.8068 32.4645 72.6364C32.4645 72.4671 32.4402 72.3168 32.3917 72.1854C32.3432 72.054 32.271 71.951 32.1751 71.8764C32.0792 71.8018 31.9596 71.7646 31.8164 71.7646C31.6791 71.7646 31.5625 71.8007 31.4666 71.8729C31.3707 71.9451 31.2979 72.0463 31.2482 72.1765C31.1997 72.3067 31.1754 72.46 31.1754 72.6364ZM34.8597 74.0533C34.5934 74.0533 34.3626 73.9947 34.1673 73.8775C33.9719 73.7603 33.8204 73.5964 33.7127 73.3857C33.6062 73.175 33.5529 72.9287 33.5529 72.647C33.5529 72.3653 33.6062 72.1185 33.7127 71.9066C33.8204 71.6947 33.9719 71.5302 34.1673 71.413C34.3626 71.2958 34.5934 71.2372 34.8597 71.2372C35.1261 71.2372 35.3569 71.2958 35.5522 71.413C35.7475 71.5302 35.8984 71.6947 36.005 71.9066C36.1127 72.1185 36.1665 72.3653 36.1665 72.647C36.1665 72.9287 36.1127 73.175 36.005 73.3857C35.8984 73.5964 35.7475 73.7603 35.5522 73.8775C35.3569 73.9947 35.1261 74.0533 34.8597 74.0533ZM34.8633 73.5384C35.0077 73.5384 35.1284 73.4987 35.2255 73.4194C35.3226 73.3389 35.3948 73.2312 35.4421 73.0962C35.4906 72.9613 35.5149 72.811 35.5149 72.6452C35.5149 72.4783 35.4906 72.3274 35.4421 72.1925C35.3948 72.0563 35.3226 71.948 35.2255 71.8675C35.1284 71.7871 35.0077 71.7468 34.8633 71.7468C34.7153 71.7468 34.5922 71.7871 34.494 71.8675C34.3969 71.948 34.3241 72.0563 34.2756 72.1925C34.2282 72.3274 34.2045 72.4783 34.2045 72.6452C34.2045 72.811 34.2282 72.9613 34.2756 73.0962C34.3241 73.2312 34.3969 73.3389 34.494 73.4194C34.5922 73.4987 34.7153 73.5384 34.8633 73.5384ZM39.0554 71.2727L38.0842 74H37.3739L36.4027 71.2727H37.0881L37.7148 73.2987H37.7433L38.3718 71.2727H39.0554ZM41.6557 71.9936L41.0698 72.0575C41.0532 71.9983 41.0242 71.9427 40.9828 71.8906C40.9425 71.8385 40.8881 71.7965 40.8194 71.7646C40.7508 71.7326 40.6667 71.7166 40.5673 71.7166C40.4335 71.7166 40.3211 71.7456 40.2299 71.8036C40.14 71.8616 40.0956 71.9368 40.0968 72.0291C40.0956 72.1084 40.1246 72.1729 40.1838 72.2227C40.2441 72.2724 40.3436 72.3132 40.4821 72.3452L40.9473 72.4446C41.2053 72.5002 41.3971 72.5884 41.5225 72.7092C41.6492 72.8299 41.7131 72.9879 41.7143 73.1832C41.7131 73.3549 41.6628 73.5064 41.5634 73.6378C41.4651 73.768 41.3284 73.8698 41.1532 73.9432C40.978 74.0166 40.7768 74.0533 40.5495 74.0533C40.2157 74.0533 39.947 73.9834 39.7434 73.8438C39.5398 73.7029 39.4185 73.507 39.3794 73.256L40.0062 73.1957C40.0346 73.3188 40.095 73.4117 40.1873 73.4744C40.2797 73.5372 40.3998 73.5685 40.5478 73.5685C40.7005 73.5685 40.823 73.5372 40.9153 73.4744C41.0088 73.4117 41.0556 73.3342 41.0556 73.2418C41.0556 73.1637 41.0254 73.0992 40.965 73.0483C40.9058 72.9974 40.8135 72.9583 40.688 72.9311L40.2228 72.8335C39.9612 72.779 39.7677 72.6873 39.6422 72.5582C39.5167 72.428 39.4546 72.2635 39.4558 72.0646C39.4546 71.8965 39.5002 71.7509 39.5925 71.6278C39.686 71.5036 39.8156 71.4077 39.9814 71.3402C40.1483 71.2715 40.3406 71.2372 40.5584 71.2372C40.878 71.2372 41.1296 71.3053 41.313 71.4414C41.4977 71.5775 41.6119 71.7616 41.6557 71.9936Z" fill="white"/>
<rect x="19" y="36" width="4" height="20" rx="2" fill="#D9D9D9"/>
<rect x="20" y="56" width="4" height="11" rx="2" transform="rotate(-90 20 56)" fill="#D9D9D9"/>
<g filter="url(#filter1_d_47_2)">
<rect x="3" y="358" width="40" height="40" rx="10" fill="#343434"/>
</g>
<g filter="url(#filter2_d_47_2)">
<rect x="3" y="408" width="40" height="50" rx="10" fill="#343434"/>
</g>
<g filter="url(#filter3_d_47_2)">
<rect x="3" y="308" width="40" height="40" rx="10" fill="#343434"/>
</g>
<g filter="url(#filter4_d_47_2)">
<rect x="3" y="258" width="40" height="40" rx="10" fill="#343434"/>
</g>
<g filter="url(#filter5_d_47_2)">
<rect x="3" y="208" width="40" height="40" rx="10" fill="#343434"/>
</g>
<g filter="url(#filter6_d_47_2)">
<rect x="3" y="158" width="40" height="40" rx="10" fill="#343434"/>
</g>
<g filter="url(#filter7_d_47_2)">
<rect x="2" y="108" width="40" height="40" rx="10" fill="#343434"/>
</g>
<path d="M23 337L11 325C12.5833 323.383 14.4127 322.146 16.488 321.287C18.5633 320.428 20.734 319.999 23 320C25.2667 320 27.4377 320.429 29.513 321.288C31.5883 322.147 33.4173 323.384 35 325L32.575 327.425C32.175 327.242 31.754 327.104 31.312 327.012C30.87 326.92 30.4327 326.875 30 326.876C28.3 326.876 26.854 327.472 25.662 328.664C24.47 329.856 23.8743 331.301 23.875 333C23.875 333.217 23.8877 333.438 23.913 333.663C23.9383 333.888 23.9717 334.109 24.013 334.325C24.0543 334.542 24.1083 334.754 24.175 334.963C24.2417 335.172 24.325 335.376 24.425 335.575L23 337ZM29 337V334H26V332H29V329H31V332H34V334H31V337H29Z" fill="black"/>
<path d="M16 267H32C32.2652 267 32.5196 267.105 32.7071 267.293C32.8946 267.48 33 267.735 33 268V272C33 272.265 32.8946 272.52 32.7071 272.707C32.5196 272.895 32.2652 273 32 273H16C15.7348 273 15.4804 272.895 15.2929 272.707C15.1054 272.52 15 272.265 15 272V268C15 267.735 15.1054 267.48 15.2929 267.293C15.4804 267.105 15.7348 267 16 267ZM16 275H32C32.2652 275 32.5196 275.105 32.7071 275.293C32.8946 275.48 33 275.735 33 276V276.67L30.5 275.56L24 278.44V281H16C15.7348 281 15.4804 280.895 15.2929 280.707C15.1054 280.52 15 280.265 15 280V276C15 275.735 15.1054 275.48 15.2929 275.293C15.4804 275.105 15.7348 275 16 275ZM16 283H24C24.06 285.25 25 287.4 26.46 289H16C15.7348 289 15.4804 288.895 15.2929 288.707C15.1054 288.52 15 288.265 15 288V284C15 283.735 15.1054 283.48 15.2929 283.293C15.4804 283.105 15.7348 283 16 283ZM21 271H22V269H21V271ZM21 279H22V277H21V279ZM21 287H22V285H21V287ZM17 269V271H19V269H17ZM17 277V279H19V277H17ZM17 285V287H19V285H17ZM30.5 278L35 280V283C35 285.78 33.08 288.37 30.5 289C27.92 288.37 26 285.78 26 283V280L30.5 278ZM30.5 279.94L28 281.06V283.72C28 285.26 29.07 286.7 30.5 287.06V279.94Z" fill="black"/>
<path d="M15 167H31C31.2652 167 31.5196 167.105 31.7071 167.293C31.8946 167.48 32 167.735 32 168V172C32 172.265 31.8946 172.52 31.7071 172.707C31.5196 172.895 31.2652 173 31 173H15C14.7348 173 14.4804 172.895 14.2929 172.707C14.1054 172.52 14 172.265 14 172V168C14 167.735 14.1054 167.48 14.2929 167.293C14.4804 167.105 14.7348 167 15 167ZM15 175H31C31.2652 175 31.5196 175.105 31.7071 175.293C31.8946 175.48 32 175.735 32 176V180C32 180.265 31.8946 180.52 31.7071 180.707C31.5196 180.895 31.2652 181 31 181H15C14.7348 181 14.4804 180.895 14.2929 180.707C14.1054 180.52 14 180.265 14 180V176C14 175.735 14.1054 175.48 14.2929 175.293C14.4804 175.105 14.7348 175 15 175ZM15 183H31C31.2652 183 31.5196 183.105 31.7071 183.293C31.8946 183.48 32 183.735 32 184V188C32 188.265 31.8946 188.52 31.7071 188.707C31.5196 188.895 31.2652 189 31 189H15C14.7348 189 14.4804 188.895 14.2929 188.707C14.1054 188.52 14 188.265 14 188V184C14 183.735 14.1054 183.48 14.2929 183.293C14.4804 183.105 14.7348 183 15 183ZM20 171H21V169H20V171ZM20 179H21V177H20V179ZM20 187H21V185H20V187ZM16 169V171H18V169H16ZM16 177V179H18V177H16ZM16 185V187H18V185H16Z" fill="black"/>
<path d="M15 236C14.45 236 13.979 235.804 13.587 235.412C13.195 235.02 12.9993 234.549 13 234V222C13 221.45 13.196 220.979 13.588 220.587C13.98 220.195 14.4507 219.999 15 220H31C31.55 220 32.021 220.196 32.413 220.588C32.805 220.98 33.0007 221.451 33 222V234C33 234.55 32.804 235.021 32.412 235.413C32.02 235.805 31.5493 236.001 31 236H15ZM15 234H31V224H15V234ZM18.5 233L17.1 231.6L19.675 229L17.075 226.4L18.5 225L22.5 229L18.5 233ZM23 233V231H29V233H23Z" fill="black"/>
<path d="M24 387C22.7667 387 21.6123 386.771 20.537 386.312C19.4617 385.853 18.516 385.224 17.7 384.425L19.125 383C19.7583 383.617 20.4917 384.104 21.325 384.463C22.1583 384.822 23.05 385.001 24 385C25.9333 385 27.5833 384.317 28.95 382.95C30.3167 381.583 31 379.933 31 378C31 376.067 30.3167 374.417 28.95 373.05C27.5833 371.683 25.9333 371 24 371C22.0667 371 20.4167 371.683 19.05 373.05C17.6833 374.417 17 376.067 17 378V378.175L18.825 376.35L20.25 377.75L16 382L11.75 377.75L13.175 376.35L15 378.2V378C15 376.75 15.2377 375.579 15.713 374.487C16.1883 373.395 16.83 372.445 17.638 371.637C18.446 370.829 19.396 370.188 20.488 369.713C21.58 369.238 22.7507 369.001 24 369C25.25 369 26.421 369.238 27.513 369.713C28.605 370.188 29.555 370.83 30.363 371.637C31.171 372.446 31.8127 373.396 32.288 374.487C32.7633 375.578 33.0007 376.749 33 378C33 380.5 32.125 382.625 30.375 384.375C28.625 386.125 26.5 387 24 387ZM22 382C21.7167 382 21.479 381.904 21.287 381.712C21.095 381.52 20.9993 381.283 21 381V378C21 377.717 21.096 377.479 21.288 377.287C21.48 377.095 21.7173 376.999 22 377V376C22 375.45 22.196 374.979 22.588 374.587C22.98 374.195 23.4507 373.999 24 374C24.55 374 25.021 374.196 25.413 374.588C25.805 374.98 26.0007 375.451 26 376V377C26.2833 377 26.521 377.096 26.713 377.288C26.905 377.48 27.0007 377.717 27 378V381C27 381.283 26.904 381.521 26.712 381.713C26.52 381.905 26.2827 382.001 26 382H22ZM23 377H25V376C25 375.717 24.904 375.479 24.712 375.287C24.52 375.095 24.2827 374.999 24 375C23.7167 375 23.479 375.096 23.287 375.288C23.095 375.48 22.9993 375.717 23 376V377Z" fill="black"/>
<rect x="10" y="83" width="26" height="1" rx="0.5" fill="#010101"/>
<rect x="19" y="117" width="6" height="22" rx="3" fill="#B3B3B3"/>
<rect x="11" y="131" width="6" height="22" rx="3" transform="rotate(-90 11 131)" fill="#B3B3B3"/>
<rect x="5" y="417" width="36" height="8" rx="4" fill="#939393"/>
<rect x="5" y="439" width="36" height="8" rx="4" fill="#898989"/>
<path d="M12.3349 420.363C12.3183 420.208 12.2485 420.087 12.1254 420.001C12.0034 419.915 11.8448 419.871 11.6495 419.871C11.5122 419.871 11.3944 419.892 11.2962 419.934C11.1979 419.975 11.1228 420.031 11.0707 420.102C11.0186 420.173 10.992 420.254 10.9908 420.346C10.9908 420.421 11.0079 420.487 11.0423 420.543C11.0778 420.598 11.1257 420.646 11.1861 420.685C11.2464 420.723 11.3133 420.754 11.3867 420.781C11.4601 420.807 11.5341 420.828 11.6087 420.846L11.9496 420.931C12.0869 420.963 12.2189 421.007 12.3455 421.061C12.4734 421.116 12.5876 421.184 12.6882 421.267C12.79 421.35 12.8705 421.45 12.9297 421.567C12.9889 421.684 13.0185 421.822 13.0185 421.979C13.0185 422.192 12.964 422.38 12.8551 422.542C12.7462 422.703 12.5888 422.829 12.3828 422.92C12.178 423.01 11.93 423.055 11.6388 423.055C11.3559 423.055 11.1103 423.011 10.902 422.924C10.6948 422.836 10.5327 422.708 10.4155 422.54C10.2995 422.372 10.2367 422.167 10.2273 421.926H10.8754C10.8848 422.052 10.9239 422.158 10.9925 422.242C11.0612 422.326 11.1506 422.389 11.2607 422.43C11.3719 422.471 11.4962 422.492 11.6335 422.492C11.7768 422.492 11.9022 422.471 12.0099 422.428C12.1188 422.384 12.2041 422.324 12.2656 422.247C12.3272 422.169 12.3585 422.078 12.3597 421.974C12.3585 421.879 12.3307 421.801 12.2763 421.739C12.2218 421.677 12.1455 421.625 12.0472 421.583C11.9502 421.54 11.8365 421.503 11.7063 421.469L11.2926 421.363C10.9931 421.286 10.7564 421.169 10.5824 421.013C10.4096 420.856 10.3232 420.647 10.3232 420.386C10.3232 420.172 10.3812 419.984 10.4972 419.824C10.6143 419.663 10.7736 419.538 10.9748 419.449C11.176 419.359 11.4039 419.314 11.6584 419.314C11.9164 419.314 12.1425 419.359 12.3366 419.449C12.532 419.538 12.6853 419.661 12.7965 419.82C12.9078 419.977 12.9652 420.158 12.9688 420.363H12.3349ZM13.6057 423V419.364H15.9708V419.916H14.2645V420.903H15.8483V421.455H14.2645V422.448H15.985V423H13.6057ZM16.483 419.916V419.364H19.3843V419.916H18.2604V423H17.607V419.916H16.483ZM19.7838 419.916V419.364H22.6851V419.916H21.5612V423H20.9078V419.916H19.7838ZM23.9031 419.364V423H23.2444V419.364H23.9031ZM27.6048 419.364V423H27.0188L25.3054 420.523H25.2752V423H24.6165V419.364H25.206L26.9176 421.842H26.9496V419.364H27.6048ZM30.7586 420.525C30.729 420.429 30.6882 420.343 30.6361 420.267C30.5852 420.19 30.5236 420.125 30.4514 420.07C30.3804 420.016 30.2987 419.975 30.2064 419.948C30.1141 419.919 30.0135 419.905 29.9046 419.905C29.7093 419.905 29.5352 419.954 29.3825 420.053C29.2298 420.151 29.1097 420.295 29.0221 420.486C28.9357 420.675 28.8925 420.906 28.8925 421.178C28.8925 421.453 28.9357 421.685 29.0221 421.876C29.1085 422.067 29.2287 422.212 29.3825 422.311C29.5364 422.409 29.7152 422.458 29.9188 422.458C30.1034 422.458 30.2632 422.423 30.3982 422.352C30.5343 422.281 30.6391 422.18 30.7124 422.05C30.7858 421.919 30.8225 421.765 30.8225 421.588L30.9717 421.612H29.9845V421.097H31.46V421.533C31.46 421.845 31.3937 422.114 31.2611 422.341C31.1285 422.569 30.9462 422.744 30.7142 422.867C30.4822 422.989 30.2159 423.05 29.9152 423.05C29.5802 423.05 29.2861 422.975 29.0328 422.824C28.7806 422.673 28.5835 422.458 28.4415 422.18C28.3006 421.9 28.2302 421.569 28.2302 421.185C28.2302 420.892 28.2716 420.63 28.3545 420.399C28.4385 420.168 28.5557 419.972 28.7061 419.811C28.8564 419.649 29.0328 419.526 29.2352 419.442C29.4376 419.357 29.6578 419.314 29.8957 419.314C30.0969 419.314 30.2845 419.344 30.4585 419.403C30.6325 419.461 30.787 419.544 30.922 419.651C31.0581 419.759 31.17 419.887 31.2575 420.035C31.3451 420.183 31.4026 420.346 31.4298 420.525H30.7586ZM34.0732 420.363C34.0566 420.208 33.9867 420.087 33.8636 420.001C33.7417 419.915 33.5831 419.871 33.3878 419.871C33.2505 419.871 33.1327 419.892 33.0344 419.934C32.9362 419.975 32.861 420.031 32.8089 420.102C32.7569 420.173 32.7302 420.254 32.729 420.346C32.729 420.421 32.7462 420.487 32.7805 420.543C32.8161 420.598 32.864 420.646 32.9244 420.685C32.9847 420.723 33.0516 420.754 33.125 420.781C33.1984 420.807 33.2724 420.828 33.3469 420.846L33.6879 420.931C33.8252 420.963 33.9571 421.007 34.0838 421.061C34.2116 421.116 34.3259 421.184 34.4265 421.267C34.5283 421.35 34.6088 421.45 34.668 421.567C34.7272 421.684 34.7567 421.822 34.7567 421.979C34.7567 422.192 34.7023 422.38 34.5934 422.542C34.4845 422.703 34.3271 422.829 34.1211 422.92C33.9163 423.01 33.6683 423.055 33.3771 423.055C33.0942 423.055 32.8486 423.011 32.6403 422.924C32.4331 422.836 32.271 422.708 32.1538 422.54C32.0378 422.372 31.975 422.167 31.9656 421.926H32.6136C32.6231 422.052 32.6622 422.158 32.7308 422.242C32.7995 422.326 32.8888 422.389 32.9989 422.43C33.1102 422.471 33.2345 422.492 33.3718 422.492C33.515 422.492 33.6405 422.471 33.7482 422.428C33.8571 422.384 33.9424 422.324 34.0039 422.247C34.0655 422.169 34.0968 422.078 34.098 421.974C34.0968 421.879 34.069 421.801 34.0146 421.739C33.9601 421.677 33.8838 421.625 33.7855 421.583C33.6884 421.54 33.5748 421.503 33.4446 421.469L33.0309 421.363C32.7314 421.286 32.4947 421.169 32.3207 421.013C32.1478 420.856 32.0614 420.647 32.0614 420.386C32.0614 420.172 32.1194 419.984 32.2354 419.824C32.3526 419.663 32.5118 419.538 32.7131 419.449C32.9143 419.359 33.1422 419.314 33.3967 419.314C33.6547 419.314 33.8808 419.359 34.0749 419.449C34.2702 419.538 34.4235 419.661 34.5348 419.82C34.6461 419.977 34.7035 420.158 34.707 420.363H34.0732Z" fill="black"/>
<path d="M13.1989 441.916V441.364H16.1001V441.916H14.9762V445H14.3228V441.916H13.1989ZM16.6594 445V441.364H17.3182V442.903H19.0032V441.364H19.6637V445H19.0032V443.455H17.3182V445H16.6594ZM20.3801 445V441.364H22.7452V441.916H21.0389V442.903H22.6227V443.455H21.0389V444.448H22.7594V445H20.3801ZM23.4173 441.364H24.2234L25.3029 443.999H25.3455L26.4251 441.364H27.2312V445H26.5991V442.502H26.5653L25.5604 444.989H25.0881L24.0831 442.496H24.0494V445H23.4173V441.364ZM27.9485 445V441.364H30.3136V441.916H28.6072V442.903H30.1911V443.455H28.6072V444.448H30.3278V445H27.9485Z" fill="black"/>
<path d="M7.08274 464.554H6.6843C6.67294 464.489 6.65199 464.431 6.62145 464.381C6.59091 464.33 6.55291 464.286 6.50746 464.251C6.462 464.215 6.41016 464.189 6.35192 464.171C6.29439 464.152 6.23224 464.143 6.16548 464.143C6.04688 464.143 5.94176 464.173 5.85014 464.233C5.75852 464.292 5.68679 464.378 5.63494 464.493C5.5831 464.606 5.55717 464.745 5.55717 464.909C5.55717 465.076 5.5831 465.217 5.63494 465.331C5.6875 465.445 5.75923 465.531 5.85014 465.589C5.94176 465.646 6.04652 465.675 6.16442 465.675C6.22976 465.675 6.29084 465.667 6.34766 465.65C6.40518 465.632 6.45668 465.606 6.50213 465.572C6.5483 465.538 6.587 465.496 6.61825 465.446C6.65021 465.396 6.67223 465.339 6.6843 465.276L7.08274 465.278C7.06783 465.381 7.03551 465.479 6.9858 465.57C6.93679 465.661 6.87251 465.741 6.79297 465.81C6.71342 465.879 6.62038 465.933 6.51385 465.972C6.40732 466.011 6.28906 466.03 6.15909 466.03C5.96733 466.03 5.79616 465.985 5.6456 465.897C5.49503 465.808 5.37642 465.68 5.28977 465.512C5.20313 465.344 5.1598 465.143 5.1598 464.909C5.1598 464.674 5.20348 464.473 5.29084 464.306C5.3782 464.138 5.49716 464.01 5.64773 463.922C5.7983 463.833 5.96875 463.788 6.15909 463.788C6.28054 463.788 6.39347 463.805 6.49787 463.839C6.60227 463.874 6.69531 463.924 6.77699 463.99C6.85866 464.055 6.92578 464.135 6.97834 464.23C7.03161 464.325 7.06641 464.433 7.08274 464.554ZM9.39426 464.909C9.39426 465.144 9.35023 465.346 9.26216 465.513C9.1748 465.68 9.05549 465.808 8.90421 465.897C8.75364 465.985 8.58283 466.03 8.39178 466.03C8.20073 466.03 8.02956 465.985 7.87828 465.897C7.72772 465.807 7.6084 465.679 7.52033 465.512C7.43297 465.344 7.38929 465.143 7.38929 464.909C7.38929 464.674 7.43297 464.473 7.52033 464.306C7.6084 464.138 7.72772 464.01 7.87828 463.922C8.02956 463.833 8.20073 463.788 8.39178 463.788C8.58283 463.788 8.75364 463.833 8.90421 463.922C9.05549 464.01 9.1748 464.138 9.26216 464.306C9.35023 464.473 9.39426 464.674 9.39426 464.909ZM8.99689 464.909C8.99689 464.744 8.97097 464.604 8.91912 464.49C8.86799 464.376 8.79696 464.29 8.70605 464.232C8.61515 464.173 8.51039 464.143 8.39178 464.143C8.27317 464.143 8.16841 464.173 8.0775 464.232C7.98659 464.29 7.91522 464.376 7.86337 464.49C7.81223 464.604 7.78667 464.744 7.78667 464.909C7.78667 465.075 7.81223 465.214 7.86337 465.329C7.91522 465.442 7.98659 465.529 8.0775 465.588C8.16841 465.646 8.27317 465.675 8.39178 465.675C8.51039 465.675 8.61515 465.646 8.70605 465.588C8.79696 465.529 8.86799 465.442 8.91912 465.329C8.97097 465.214 8.99689 465.075 8.99689 464.909ZM9.76793 466V463.818H10.5861C10.7537 463.818 10.8944 463.849 11.008 463.912C11.1223 463.974 11.2086 464.06 11.2669 464.17C11.3258 464.278 11.3553 464.402 11.3553 464.54C11.3553 464.68 11.3258 464.805 11.2669 464.913C11.2079 465.022 11.1209 465.108 11.0059 465.17C10.8908 465.232 10.7491 465.263 10.5808 465.263H10.0385V464.938H10.5275C10.6255 464.938 10.7058 464.921 10.7683 464.887C10.8308 464.853 10.877 464.806 10.9068 464.746C10.9373 464.686 10.9526 464.618 10.9526 464.54C10.9526 464.463 10.9373 464.395 10.9068 464.336C10.877 464.277 10.8304 464.231 10.7672 464.199C10.7047 464.165 10.6241 464.148 10.5254 464.148H10.1632V466H9.76793ZM11.5494 463.818H11.9958L12.5296 464.783H12.5509L13.0846 463.818H13.531L12.7373 465.186V466H12.3431V465.186L11.5494 463.818ZM13.8109 466V463.818H14.6291C14.7967 463.818 14.9373 463.847 15.051 463.906C15.1653 463.964 15.2516 464.045 15.3098 464.151C15.3688 464.255 15.3983 464.377 15.3983 464.516C15.3983 464.656 15.3684 464.777 15.3088 464.88C15.2498 464.983 15.1628 465.062 15.0478 465.118C14.9327 465.173 14.7914 465.201 14.6238 465.201H14.041V464.873H14.5705C14.6685 464.873 14.7488 464.859 14.8113 464.832C14.8738 464.805 14.9199 464.765 14.9498 464.712C14.9803 464.659 14.9956 464.593 14.9956 464.516C14.9956 464.439 14.9803 464.373 14.9498 464.318C14.9192 464.262 14.8727 464.221 14.8102 464.192C14.7477 464.163 14.6671 464.148 14.5684 464.148H14.2061V466H13.8109ZM14.938 465.011L15.4782 466H15.0371L14.5066 465.011H14.938ZM16.1573 463.818V466H15.7621V463.818H16.1573ZM18.047 464.515C18.0292 464.457 18.0047 464.406 17.9735 464.36C17.9429 464.314 17.906 464.275 17.8627 464.242C17.82 464.21 17.771 464.185 17.7156 464.169C17.6602 464.152 17.5999 464.143 17.5345 464.143C17.4173 464.143 17.3129 464.173 17.2213 464.232C17.1297 464.29 17.0576 464.377 17.0051 464.491C16.9532 464.605 16.9273 464.744 16.9273 464.907C16.9273 465.072 16.9532 465.211 17.0051 465.326C17.0569 465.44 17.129 465.527 17.2213 465.587C17.3137 465.646 17.4209 465.675 17.5431 465.675C17.6539 465.675 17.7497 465.654 17.8307 465.611C17.9124 465.569 17.9752 465.508 18.0193 465.43C18.0633 465.351 18.0853 465.259 18.0853 465.153L18.1748 465.167H17.5825V464.858H18.4678V465.12C18.4678 465.307 18.428 465.468 18.3485 465.605C18.2689 465.741 18.1595 465.846 18.0203 465.92C17.8811 465.993 17.7213 466.03 17.5409 466.03C17.3399 466.03 17.1634 465.985 17.0115 465.895C16.8602 465.804 16.7419 465.675 16.6567 465.508C16.5722 465.34 16.5299 465.141 16.5299 464.911C16.5299 464.735 16.5548 464.578 16.6045 464.439C16.6549 464.301 16.7252 464.183 16.8154 464.087C16.9056 463.989 17.0115 463.915 17.1329 463.865C17.2544 463.814 17.3865 463.788 17.5292 463.788C17.6499 463.788 17.7625 463.806 17.8669 463.842C17.9713 463.876 18.064 463.926 18.145 463.991C18.2267 464.055 18.2938 464.132 18.3463 464.221C18.3989 464.31 18.4333 464.408 18.4497 464.515H18.047ZM18.85 466V463.818H19.2452V464.742H20.2562V463.818H20.6525V466H20.2562V465.073H19.2452V466H18.85ZM20.9865 464.15V463.818H22.7273V464.15H22.0529V466H21.6609V464.15H20.9865ZM23.7857 466V465.714L24.5431 464.972C24.6156 464.899 24.676 464.834 24.7243 464.777C24.7725 464.72 24.8088 464.665 24.8329 464.612C24.8571 464.559 24.8691 464.502 24.8691 464.441C24.8691 464.373 24.8535 464.314 24.8223 464.265C24.791 464.215 24.748 464.176 24.6934 464.15C24.6387 464.123 24.5765 464.109 24.5069 464.109C24.4352 464.109 24.3723 464.124 24.3184 464.154C24.2644 464.183 24.2225 464.224 24.1926 464.278C24.1635 464.332 24.149 464.397 24.149 464.471H23.7729C23.7729 464.333 23.8045 464.212 23.8677 464.11C23.9309 464.008 24.0179 463.929 24.1287 463.873C24.2402 463.816 24.3681 463.788 24.5123 463.788C24.6586 463.788 24.7871 463.816 24.8979 463.87C25.0087 463.925 25.0946 464 25.1557 464.095C25.2175 464.19 25.2484 464.299 25.2484 464.421C25.2484 464.503 25.2328 464.583 25.2015 464.662C25.1703 464.741 25.1152 464.828 25.0364 464.924C24.9583 465.02 24.8485 465.136 24.7072 465.272L24.3311 465.655V465.67H25.2814V466H23.7857ZM26.4554 466.042C26.28 466.042 26.1294 465.997 26.0037 465.908C25.8787 465.819 25.7825 465.69 25.715 465.522C25.6483 465.353 25.6149 465.149 25.6149 464.911C25.6156 464.673 25.6493 464.471 25.7161 464.304C25.7836 464.136 25.8798 464.009 26.0048 463.92C26.1305 463.832 26.2807 463.788 26.4554 463.788C26.6301 463.788 26.7804 463.832 26.9061 463.92C27.0318 464.009 27.128 464.136 27.1948 464.304C27.2623 464.472 27.296 464.674 27.296 464.911C27.296 465.15 27.2623 465.354 27.1948 465.523C27.128 465.691 27.0318 465.82 26.9061 465.908C26.7811 465.997 26.6309 466.042 26.4554 466.042ZM26.4554 465.708C26.5918 465.708 26.6994 465.641 26.7782 465.507C26.8578 465.372 26.8975 465.173 26.8975 464.911C26.8975 464.738 26.8794 464.592 26.8432 464.474C26.807 464.357 26.7559 464.268 26.6898 464.208C26.6238 464.148 26.5456 464.118 26.4554 464.118C26.3198 464.118 26.2125 464.185 26.1337 464.32C26.0549 464.454 26.0151 464.651 26.0144 464.911C26.0137 465.085 26.0311 465.232 26.0666 465.35C26.1028 465.469 26.1539 465.558 26.22 465.619C26.286 465.678 26.3645 465.708 26.4554 465.708ZM27.6499 466V465.714L28.4074 464.972C28.4798 464.899 28.5402 464.834 28.5885 464.777C28.6368 464.72 28.673 464.665 28.6972 464.612C28.7213 464.559 28.7334 464.502 28.7334 464.441C28.7334 464.373 28.7178 464.314 28.6865 464.265C28.6553 464.215 28.6123 464.176 28.5576 464.15C28.5029 464.123 28.4408 464.109 28.3712 464.109C28.2994 464.109 28.2366 464.124 28.1826 464.154C28.1286 464.183 28.0867 464.224 28.0569 464.278C28.0278 464.332 28.0132 464.397 28.0132 464.471H27.6372C27.6372 464.333 27.6688 464.212 27.732 464.11C27.7952 464.008 27.8822 463.929 27.993 463.873C28.1045 463.816 28.2323 463.788 28.3765 463.788C28.5228 463.788 28.6514 463.816 28.7622 463.87C28.873 463.925 28.9589 464 29.02 464.095C29.0818 464.19 29.1127 464.299 29.1127 464.421C29.1127 464.503 29.097 464.583 29.0658 464.662C29.0345 464.741 28.9795 464.828 28.9007 464.924C28.8225 465.02 28.7128 465.136 28.5715 465.272L28.1954 465.655V465.67H29.1457V466H27.6499ZM30.2963 466.03C30.1428 466.03 30.0065 466.004 29.8872 465.951C29.7686 465.898 29.6748 465.825 29.6059 465.732C29.537 465.638 29.5004 465.529 29.4962 465.407H29.8968C29.9003 465.466 29.9198 465.517 29.9553 465.561C29.9909 465.604 30.0381 465.638 30.097 465.662C30.156 465.686 30.222 465.699 30.2952 465.699C30.3733 465.699 30.4426 465.685 30.5029 465.658C30.5633 465.63 30.6105 465.592 30.6446 465.543C30.6787 465.494 30.6954 465.437 30.6947 465.374C30.6954 465.308 30.6784 465.249 30.6436 465.199C30.6088 465.148 30.5583 465.109 30.4923 465.081C30.4269 465.052 30.3481 465.038 30.2558 465.038H30.0629V464.733H30.2558C30.3318 464.733 30.3982 464.72 30.455 464.694C30.5125 464.668 30.5576 464.631 30.5903 464.583C30.623 464.535 30.6389 464.479 30.6382 464.416C30.6389 464.354 30.6251 464.3 30.5967 464.255C30.569 464.209 30.5296 464.173 30.4784 464.147C30.428 464.122 30.3687 464.109 30.3005 464.109C30.2338 464.109 30.172 464.121 30.1151 464.145C30.0583 464.169 30.0125 464.204 29.9777 464.249C29.9429 464.293 29.9244 464.345 29.9223 464.406H29.542C29.5448 464.284 29.58 464.177 29.6475 464.085C29.7156 463.991 29.8066 463.919 29.9202 463.867C30.0338 463.815 30.1613 463.788 30.3026 463.788C30.4482 463.788 30.5747 463.816 30.6819 463.87C30.7899 463.924 30.8733 463.997 30.9323 464.089C30.9912 464.18 31.0207 464.282 31.0207 464.392C31.0214 464.515 30.9852 464.618 30.912 464.701C30.8396 464.784 30.7444 464.839 30.6265 464.864V464.881C30.7799 464.903 30.8975 464.96 30.9791 465.052C31.0615 465.143 31.1024 465.257 31.1017 465.394C31.1017 465.516 31.0669 465.625 30.9972 465.722C30.9284 465.818 30.8332 465.893 30.7117 465.948C30.591 466.002 30.4525 466.03 30.2963 466.03ZM32.4634 464.75V465.068H31.4812V464.75H32.4634ZM33.0494 463.818L33.5298 464.617H33.5469L34.0295 463.818H34.4801L33.8079 464.909L34.4908 466H34.0327L33.5469 465.206H33.5298L33.044 466H32.5881L33.2773 464.909L32.5966 463.818H33.0494ZM35.6565 463.818V466H35.2613V464.203H35.2485L34.7382 464.529V464.167L35.2805 463.818H35.6565ZM38.1814 464.909C38.1814 465.144 38.1373 465.346 38.0493 465.513C37.9619 465.68 37.8426 465.808 37.6913 465.897C37.5407 465.985 37.3699 466.03 37.1789 466.03C36.9878 466.03 36.8167 465.985 36.6654 465.897C36.5148 465.807 36.3955 465.679 36.3074 465.512C36.2201 465.344 36.1764 465.143 36.1764 464.909C36.1764 464.674 36.2201 464.473 36.3074 464.306C36.3955 464.138 36.5148 464.01 36.6654 463.922C36.8167 463.833 36.9878 463.788 37.1789 463.788C37.3699 463.788 37.5407 463.833 37.6913 463.922C37.8426 464.01 37.9619 464.138 38.0493 464.306C38.1373 464.473 38.1814 464.674 38.1814 464.909ZM37.784 464.909C37.784 464.744 37.7581 464.604 37.7062 464.49C37.6551 464.376 37.5841 464.29 37.4932 464.232C37.4023 464.173 37.2975 464.143 37.1789 464.143C37.0603 464.143 36.9555 464.173 36.8646 464.232C36.7737 464.29 36.7023 464.376 36.6505 464.49C36.5993 464.604 36.5738 464.744 36.5738 464.909C36.5738 465.075 36.5993 465.214 36.6505 465.329C36.7023 465.442 36.7737 465.529 36.8646 465.588C36.9555 465.646 37.0603 465.675 37.1789 465.675C37.2975 465.675 37.4023 465.646 37.4932 465.588C37.5841 465.529 37.6551 465.442 37.7062 465.329C37.7581 465.214 37.784 465.075 37.784 464.909ZM39.7408 464.418C39.7308 464.325 39.6889 464.252 39.6151 464.201C39.5419 464.149 39.4467 464.123 39.3295 464.123C39.2472 464.123 39.1765 464.135 39.1175 464.16C39.0586 464.185 39.0135 464.219 38.9822 464.261C38.951 464.304 38.935 464.353 38.9343 464.407C38.9343 464.453 38.9446 464.492 38.9652 464.526C38.9865 464.559 39.0153 464.587 39.0515 464.611C39.0877 464.634 39.1278 464.653 39.1719 464.668C39.2159 464.684 39.2603 464.697 39.305 464.708L39.5096 464.759C39.592 464.778 39.6712 464.804 39.7472 464.837C39.8239 464.869 39.8924 464.911 39.9528 464.96C40.0138 465.01 40.0621 465.07 40.0977 465.14C40.1332 465.211 40.1509 465.293 40.1509 465.387C40.1509 465.515 40.1183 465.628 40.0529 465.725C39.9876 465.822 39.8931 465.897 39.7695 465.952C39.6467 466.006 39.4979 466.033 39.3232 466.033C39.1534 466.033 39.006 466.007 38.881 465.954C38.7567 465.902 38.6594 465.825 38.5891 465.724C38.5195 465.623 38.4819 465.5 38.4762 465.355H38.8651C38.8707 465.431 38.8942 465.495 38.9354 465.545C38.9766 465.596 39.0302 465.633 39.0962 465.658C39.163 465.683 39.2376 465.695 39.32 465.695C39.4059 465.695 39.4812 465.683 39.5458 465.657C39.6112 465.631 39.6623 465.594 39.6992 465.548C39.7362 465.501 39.755 465.447 39.7557 465.384C39.755 465.327 39.7383 465.281 39.7056 465.244C39.6729 465.206 39.6271 465.175 39.5682 465.15C39.5099 465.124 39.4418 465.102 39.3636 465.082L39.1154 465.018C38.9357 464.972 38.7937 464.902 38.6893 464.808C38.5856 464.713 38.5337 464.588 38.5337 464.432C38.5337 464.303 38.5685 464.191 38.6381 464.094C38.7085 463.998 38.804 463.923 38.9247 463.869C39.0455 463.815 39.1822 463.788 39.3349 463.788C39.4897 463.788 39.6254 463.815 39.7418 463.869C39.859 463.923 39.951 463.997 40.0178 464.092C40.0845 464.186 40.119 464.295 40.1211 464.418H39.7408Z" fill="#333333"/>
<path d="M409.359 21V17.3636H410.017V18.9031H411.702V17.3636H412.363V21H411.702V19.4553H410.017V21H409.359ZM416.329 19.1818C416.329 19.5736 416.255 19.9092 416.108 20.1886C415.963 20.4667 415.764 20.6798 415.512 20.8278C415.261 20.9757 414.976 21.0497 414.658 21.0497C414.339 21.0497 414.054 20.9757 413.802 20.8278C413.551 20.6786 413.352 20.465 413.205 20.1868C413.06 19.9074 412.987 19.5724 412.987 19.1818C412.987 18.79 413.06 18.455 413.205 18.1768C413.352 17.8975 413.551 17.6838 413.802 17.5359C414.054 17.3879 414.339 17.3139 414.658 17.3139C414.976 17.3139 415.261 17.3879 415.512 17.5359C415.764 17.6838 415.963 17.8975 416.108 18.1768C416.255 18.455 416.329 18.79 416.329 19.1818ZM415.666 19.1818C415.666 18.906 415.623 18.6734 415.537 18.484C415.452 18.2934 415.333 18.1496 415.182 18.0526C415.03 17.9543 414.856 17.9052 414.658 17.9052C414.46 17.9052 414.286 17.9543 414.134 18.0526C413.983 18.1496 413.864 18.2934 413.777 18.484C413.692 18.6734 413.649 18.906 413.649 19.1818C413.649 19.4576 413.692 19.6908 413.777 19.8814C413.864 20.0708 413.983 20.2146 414.134 20.3129C414.286 20.4099 414.46 20.4585 414.658 20.4585C414.856 20.4585 415.03 20.4099 415.182 20.3129C415.333 20.2146 415.452 20.0708 415.537 19.8814C415.623 19.6908 415.666 19.4576 415.666 19.1818ZM416.951 17.3636H417.758L418.837 19.9986H418.88L419.959 17.3636H420.765V21H420.133V18.5018H420.1L419.095 20.9893H418.622L417.617 18.4964H417.584V21H416.951V17.3636ZM421.483 21V17.3636H423.848V17.9158H422.141V18.9031H423.725V19.4553H422.141V20.4478H423.862V21H421.483ZM424.52 21V17.3636H425.883C426.163 17.3636 426.397 17.4157 426.587 17.5199C426.777 17.6241 426.921 17.7673 427.018 17.9496C427.116 18.1307 427.165 18.3366 427.165 18.5675C427.165 18.8007 427.116 19.0078 427.018 19.1889C426.92 19.37 426.775 19.5127 426.583 19.6168C426.391 19.7198 426.155 19.7713 425.875 19.7713H424.971V19.2298H425.786C425.949 19.2298 426.083 19.2013 426.187 19.1445C426.291 19.0877 426.368 19.0096 426.418 18.9102C426.469 18.8107 426.494 18.6965 426.494 18.5675C426.494 18.4384 426.469 18.3248 426.418 18.2266C426.368 18.1283 426.291 18.052 426.185 17.9975C426.081 17.9419 425.947 17.9141 425.782 17.9141H425.179V21H424.52ZM427.799 21H427.096L428.376 17.3636H429.19L430.472 21H429.768L428.797 18.1094H428.769L427.799 21ZM427.822 19.5742H429.74V20.1033H427.822V19.5742ZM433.216 18.5249C433.186 18.429 433.145 18.3432 433.093 18.2674C433.042 18.1905 432.981 18.1248 432.908 18.0703C432.837 18.0159 432.756 17.975 432.663 17.9478C432.571 17.9194 432.47 17.9052 432.362 17.9052C432.166 17.9052 431.992 17.9543 431.84 18.0526C431.687 18.1508 431.567 18.2952 431.479 18.4858C431.393 18.6752 431.35 18.906 431.35 19.1783C431.35 19.4529 431.393 19.6855 431.479 19.8761C431.566 20.0666 431.686 20.2116 431.84 20.3111C431.993 20.4093 432.172 20.4585 432.376 20.4585C432.56 20.4585 432.72 20.4229 432.855 20.3519C432.991 20.2809 433.096 20.1803 433.169 20.0501C433.243 19.9187 433.28 19.7648 433.28 19.5884L433.429 19.6115H432.441V19.0966H433.917V19.5334C433.917 19.8447 433.851 20.114 433.718 20.3413C433.586 20.5685 433.403 20.7437 433.171 20.8668C432.939 20.9888 432.673 21.0497 432.372 21.0497C432.037 21.0497 431.743 20.9746 431.49 20.8242C431.238 20.6727 431.041 20.4579 430.899 20.1797C430.758 19.9003 430.687 19.5689 430.687 19.1854C430.687 18.8918 430.729 18.6296 430.812 18.3988C430.896 18.168 431.013 17.9721 431.163 17.8111C431.313 17.6489 431.49 17.5258 431.692 17.4418C431.895 17.3565 432.115 17.3139 432.353 17.3139C432.554 17.3139 432.742 17.3435 432.916 17.4027C433.09 17.4607 433.244 17.5436 433.379 17.6513C433.515 17.759 433.627 17.8868 433.715 18.0348C433.802 18.1828 433.86 18.3461 433.887 18.5249H433.216ZM434.554 21V17.3636H436.919V17.9158H435.213V18.9031H436.797V19.4553H435.213V20.4478H436.933V21H434.554Z" fill="white"/>
<path d="M54 30C54 21.7157 60.7157 15 69 15H831C839.284 15 846 21.7157 846 30V471H69C60.7157 471 54 464.284 54 456V30Z" fill="#6F6F6F"/>
<path d="M88.3086 86L72.5039 30H83.4141L93.5039 71.1523H94.0234L104.797 30H114.723L125.523 71.1797H126.016L136.105 30H147.016L131.211 86H121.203L109.992 46.707H109.555L98.3164 86H88.3086ZM201.081 58C201.081 64.0339 199.951 69.2018 197.69 73.5039C195.448 77.7878 192.386 81.069 188.503 83.3477C184.638 85.6263 180.254 86.7656 175.351 86.7656C170.447 86.7656 166.054 85.6263 162.171 83.3477C158.306 81.0508 155.244 77.7604 152.983 73.4766C150.741 69.1745 149.62 64.0156 149.62 58C149.62 51.9661 150.741 46.8073 152.983 42.5234C155.244 38.2214 158.306 34.931 162.171 32.6523C166.054 30.3737 170.447 29.2344 175.351 29.2344C180.254 29.2344 184.638 30.3737 188.503 32.6523C192.386 34.931 195.448 38.2214 197.69 42.5234C199.951 46.8073 201.081 51.9661 201.081 58ZM190.882 58C190.882 53.7526 190.216 50.1706 188.886 47.2539C187.573 44.319 185.75 42.1042 183.417 40.6094C181.084 39.0964 178.395 38.3398 175.351 38.3398C172.306 38.3398 169.618 39.0964 167.284 40.6094C164.951 42.1042 163.119 44.319 161.788 47.2539C160.476 50.1706 159.819 53.7526 159.819 58C159.819 62.2474 160.476 65.8385 161.788 68.7734C163.119 71.6901 164.951 73.9049 167.284 75.418C169.618 76.9128 172.306 77.6602 175.351 77.6602C178.395 77.6602 181.084 76.9128 183.417 75.418C185.75 73.9049 187.573 71.6901 188.886 68.7734C190.216 65.8385 190.882 62.2474 190.882 58ZM210.672 86V30H231.672C235.974 30 239.583 30.7474 242.5 32.2422C245.435 33.737 247.65 35.8333 249.145 38.5312C250.658 41.2109 251.414 44.3372 251.414 47.9102C251.414 51.5013 250.648 54.6185 249.117 57.2617C247.604 59.8867 245.371 61.9193 242.418 63.3594C239.465 64.7812 235.837 65.4922 231.535 65.4922H216.578V57.0703H230.168C232.684 57.0703 234.743 56.724 236.348 56.0312C237.952 55.3203 239.137 54.2904 239.902 52.9414C240.686 51.5742 241.078 49.8971 241.078 47.9102C241.078 45.9232 240.686 44.2279 239.902 42.8242C239.118 41.4023 237.924 40.3268 236.32 39.5977C234.716 38.8503 232.647 38.4766 230.113 38.4766H220.816V86H210.672ZM239.602 60.625L253.465 86H242.145L228.527 60.625H239.602ZM260.752 86V30H270.896V55.7305H271.58L293.428 30H305.814L284.158 55.1289L306.006 86H293.811L277.104 61.9922L270.896 69.3203V86H260.752ZM342.106 30V86H331.962V30H342.106ZM399.111 30V86H390.088L363.701 47.8555H363.236V86H353.092V30H362.17L388.529 68.1719H389.021V30H399.111ZM429.265 86V30H450.265C454.567 30 458.176 30.8021 461.093 32.4062C464.028 34.0104 466.243 36.2161 467.737 39.0234C469.25 41.8125 470.007 44.9844 470.007 48.5391C470.007 52.1302 469.25 55.3203 467.737 58.1094C466.224 60.8984 463.991 63.0951 461.038 64.6992C458.085 66.2852 454.448 67.0781 450.128 67.0781H436.21V58.7383H448.761C451.276 58.7383 453.336 58.3008 454.94 57.4258C456.545 56.5508 457.729 55.3477 458.495 53.8164C459.279 52.2852 459.671 50.526 459.671 48.5391C459.671 46.5521 459.279 44.8021 458.495 43.2891C457.729 41.776 456.535 40.6003 454.913 39.7617C453.309 38.9049 451.24 38.4766 448.706 38.4766H439.409V86H429.265ZM478.818 86V30H499.818C504.12 30 507.73 30.7474 510.646 32.2422C513.581 33.737 515.796 35.8333 517.291 38.5312C518.804 41.2109 519.561 44.3372 519.561 47.9102C519.561 51.5013 518.795 54.6185 517.264 57.2617C515.751 59.8867 513.518 61.9193 510.564 63.3594C507.611 64.7812 503.984 65.4922 499.682 65.4922H484.725V57.0703H498.314C500.83 57.0703 502.89 56.724 504.494 56.0312C506.098 55.3203 507.283 54.2904 508.049 52.9414C508.833 51.5742 509.225 49.8971 509.225 47.9102C509.225 45.9232 508.833 44.2279 508.049 42.8242C507.265 41.4023 506.071 40.3268 504.467 39.5977C502.863 38.8503 500.794 38.4766 498.26 38.4766H488.963V86H478.818ZM507.748 60.625L521.611 86H510.291L496.674 60.625H507.748ZM578.938 58C578.938 64.0339 577.807 69.2018 575.547 73.5039C573.305 77.7878 570.242 81.069 566.359 83.3477C562.495 85.6263 558.111 86.7656 553.207 86.7656C548.303 86.7656 543.91 85.6263 540.027 83.3477C536.163 81.0508 533.1 77.7604 530.84 73.4766C528.598 69.1745 527.477 64.0156 527.477 58C527.477 51.9661 528.598 46.8073 530.84 42.5234C533.1 38.2214 536.163 34.931 540.027 32.6523C543.91 30.3737 548.303 29.2344 553.207 29.2344C558.111 29.2344 562.495 30.3737 566.359 32.6523C570.242 34.931 573.305 38.2214 575.547 42.5234C577.807 46.8073 578.938 51.9661 578.938 58ZM568.738 58C568.738 53.7526 568.073 50.1706 566.742 47.2539C565.43 44.319 563.607 42.1042 561.273 40.6094C558.94 39.0964 556.251 38.3398 553.207 38.3398C550.163 38.3398 547.474 39.0964 545.141 40.6094C542.807 42.1042 540.975 44.319 539.645 47.2539C538.332 50.1706 537.676 53.7526 537.676 58C537.676 62.2474 538.332 65.8385 539.645 68.7734C540.975 71.6901 542.807 73.9049 545.141 75.418C547.474 76.9128 550.163 77.6602 553.207 77.6602C556.251 77.6602 558.94 76.9128 561.273 75.418C563.607 73.9049 565.43 71.6901 566.742 68.7734C568.073 65.8385 568.738 62.2474 568.738 58ZM626.044 47.8828C625.588 46.4062 624.959 45.0846 624.157 43.918C623.373 42.7331 622.425 41.7214 621.313 40.8828C620.22 40.0443 618.962 39.4154 617.54 38.9961C616.118 38.5586 614.569 38.3398 612.892 38.3398C609.884 38.3398 607.204 39.0964 604.853 40.6094C602.501 42.1224 600.651 44.3464 599.302 47.2812C597.971 50.1979 597.306 53.7526 597.306 57.9453C597.306 62.1745 597.971 65.7565 599.302 68.6914C600.632 71.6263 602.483 73.8594 604.853 75.3906C607.222 76.9036 609.975 77.6602 613.11 77.6602C615.954 77.6602 618.415 77.1133 620.493 76.0195C622.59 74.9258 624.203 73.3763 625.333 71.3711C626.463 69.3477 627.028 66.9779 627.028 64.2617L629.325 64.6172H614.122V56.6875H636.845V63.4141C636.845 68.2083 635.824 72.3555 633.782 75.8555C631.741 79.3555 628.933 82.0534 625.36 83.9492C621.787 85.8268 617.686 86.7656 613.056 86.7656C607.897 86.7656 603.367 85.6081 599.466 83.293C595.583 80.9596 592.548 77.651 590.36 73.3672C588.191 69.0651 587.106 63.9609 587.106 58.0547C587.106 53.5339 587.744 49.4961 589.021 45.9414C590.315 42.3867 592.119 39.3698 594.435 36.8906C596.75 34.3932 599.466 32.4974 602.583 31.2031C605.7 29.8906 609.091 29.2344 612.755 29.2344C615.854 29.2344 618.743 29.6901 621.423 30.6016C624.103 31.4948 626.481 32.7708 628.56 34.4297C630.656 36.0885 632.379 38.0573 633.728 40.3359C635.077 42.6146 635.961 45.1302 636.38 47.8828H626.044ZM646.654 86V30H667.654C671.956 30 675.566 30.7474 678.482 32.2422C681.417 33.737 683.632 35.8333 685.127 38.5312C686.64 41.2109 687.396 44.3372 687.396 47.9102C687.396 51.5013 686.631 54.6185 685.1 57.2617C683.587 59.8867 681.354 61.9193 678.4 63.3594C675.447 64.7812 671.82 65.4922 667.518 65.4922H652.561V57.0703H666.15C668.666 57.0703 670.726 56.724 672.33 56.0312C673.934 55.3203 675.119 54.2904 675.885 52.9414C676.669 51.5742 677.061 49.8971 677.061 47.9102C677.061 45.9232 676.669 44.2279 675.885 42.8242C675.101 41.4023 673.907 40.3268 672.303 39.5977C670.699 38.8503 668.63 38.4766 666.096 38.4766H656.799V86H646.654ZM675.584 60.625L689.447 86H678.127L664.51 60.625H675.584ZM696.734 86V30H733.156V38.5039H706.879V53.707H731.27V62.2109H706.879V77.4961H733.375V86H696.734ZM773.939 45.3945C773.684 43.0065 772.609 41.1471 770.713 39.8164C768.835 38.4857 766.393 37.8203 763.385 37.8203C761.27 37.8203 759.456 38.1393 757.943 38.7773C756.43 39.4154 755.273 40.2812 754.471 41.375C753.669 42.4687 753.258 43.7174 753.24 45.1211C753.24 46.2878 753.505 47.2995 754.033 48.1562C754.58 49.013 755.318 49.7422 756.248 50.3437C757.178 50.9271 758.208 51.4193 759.338 51.8203C760.468 52.2214 761.607 52.5586 762.756 52.832L768.006 54.1445C770.12 54.6367 772.153 55.3021 774.104 56.1406C776.072 56.9792 777.831 58.0365 779.381 59.3125C780.949 60.5885 782.188 62.1289 783.1 63.9336C784.011 65.7383 784.467 67.8529 784.467 70.2773C784.467 73.5586 783.628 76.4479 781.951 78.9453C780.274 81.4245 777.85 83.3659 774.678 84.7695C771.524 86.1549 767.705 86.8477 763.221 86.8477C758.864 86.8477 755.081 86.1732 751.873 84.8242C748.683 83.4753 746.186 81.5065 744.381 78.918C742.594 76.3294 741.628 73.1758 741.482 69.457H751.463C751.609 71.4076 752.21 73.0299 753.268 74.3242C754.325 75.6185 755.701 76.5846 757.396 77.2227C759.11 77.8607 761.024 78.1797 763.139 78.1797C765.344 78.1797 767.277 77.8516 768.936 77.1953C770.613 76.5208 771.925 75.5911 772.873 74.4062C773.821 73.2031 774.304 71.7995 774.322 70.1953C774.304 68.737 773.876 67.5339 773.037 66.5859C772.199 65.6198 771.023 64.8177 769.51 64.1797C768.015 63.5234 766.265 62.9401 764.26 62.4297L757.889 60.7891C753.277 59.6042 749.631 57.8086 746.951 55.4023C744.29 52.9779 742.959 49.7604 742.959 45.75C742.959 42.4505 743.852 39.5612 745.639 37.082C747.443 34.6029 749.895 32.6797 752.994 31.3125C756.093 29.9271 759.602 29.2344 763.521 29.2344C767.495 29.2344 770.977 29.9271 773.967 31.3125C776.975 32.6797 779.335 34.5846 781.049 37.0273C782.762 39.4518 783.646 42.2409 783.701 45.3945H773.939ZM823.944 45.3945C823.689 43.0065 822.614 41.1471 820.718 39.8164C818.84 38.4857 816.397 37.8203 813.39 37.8203C811.275 37.8203 809.461 38.1393 807.948 38.7773C806.435 39.4154 805.278 40.2812 804.476 41.375C803.674 42.4687 803.263 43.7174 803.245 45.1211C803.245 46.2878 803.509 47.2995 804.038 48.1562C804.585 49.013 805.323 49.7422 806.253 50.3437C807.183 50.9271 808.213 51.4193 809.343 51.8203C810.473 52.2214 811.612 52.5586 812.761 52.832L818.011 54.1445C820.125 54.6367 822.158 55.3021 824.108 56.1406C826.077 56.9792 827.836 58.0365 829.386 59.3125C830.953 60.5885 832.193 62.1289 833.104 63.9336C834.016 65.7383 834.472 67.8529 834.472 70.2773C834.472 73.5586 833.633 76.4479 831.956 78.9453C830.279 81.4245 827.854 83.3659 824.683 84.7695C821.529 86.1549 817.71 86.8477 813.226 86.8477C808.869 86.8477 805.086 86.1732 801.878 84.8242C798.688 83.4753 796.19 81.5065 794.386 78.918C792.599 76.3294 791.633 73.1758 791.487 69.457H801.468C801.614 71.4076 802.215 73.0299 803.272 74.3242C804.33 75.6185 805.706 76.5846 807.401 77.2227C809.115 77.8607 811.029 78.1797 813.144 78.1797C815.349 78.1797 817.282 77.8516 818.94 77.1953C820.618 76.5208 821.93 75.5911 822.878 74.4062C823.826 73.2031 824.309 71.7995 824.327 70.1953C824.309 68.737 823.881 67.5339 823.042 66.5859C822.203 65.6198 821.028 64.8177 819.515 64.1797C818.02 63.5234 816.27 62.9401 814.265 62.4297L807.894 60.7891C803.282 59.6042 799.636 57.8086 796.956 55.4023C794.295 52.9779 792.964 49.7604 792.964 45.75C792.964 42.4505 793.857 39.5612 795.644 37.082C797.448 34.6029 799.9 32.6797 802.999 31.3125C806.098 29.9271 809.607 29.2344 813.526 29.2344C817.5 29.2344 820.982 29.9271 823.972 31.3125C826.979 32.6797 829.34 34.5846 831.054 37.0273C832.767 39.4518 833.651 42.2409 833.706 45.3945H823.944Z" fill="white"/>
</g>
<defs>
<filter id="filter0_df_47_2" x="-17" y="6" width="80" height="80" filterUnits="userSpaceOnUse" color-interpolation-filters="sRGB">
<feFlood flood-opacity="0" result="BackgroundImageFix"/>
<feColorMatrix in="SourceAlpha" type="matrix" values="0 0 0 0 0 0 0 0 0 0 0 0 0 0 0 0 0 0 127 0" result="hardAlpha"/>
<feOffset dy="4"/>
<feGaussianBlur stdDeviation="2"/>
<feComposite in2="hardAlpha" operator="out"/>
<feColorMatrix type="matrix" values="0 0 0 0 0 0 0 0 0 0 0 0 0 0 0 0 0 0 0.25 0"/>
<feBlend mode="normal" in2="BackgroundImageFix" result="effect1_dropShadow_47_2"/>
<feBlend mode="normal" in="SourceGraphic" in2="effect1_dropShadow_47_2" result="shape"/>
<feGaussianBlur stdDeviation="10" result="effect2_foregroundBlur_47_2"/>
</filter>
<filter id="filter1_d_47_2" x="-1" y="358" width="48" height="48" filterUnits="userSpaceOnUse" color-interpolation-filters="sRGB">
<feFlood flood-opacity="0" result="BackgroundImageFix"/>
<feColorMatrix in="SourceAlpha" type="matrix" values="0 0 0 0 0 0 0 0 0 0 0 0 0 0 0 0 0 0 127 0" result="hardAlpha"/>
<feOffset dy="4"/>
<feGaussianBlur stdDeviation="2"/>
<feComposite in2="hardAlpha" operator="out"/>
<feColorMatrix type="matrix" values="0 0 0 0 0 0 0 0 0 0 0 0 0 0 0 0 0 0 0.25 0"/>
<feBlend mode="normal" in2="BackgroundImageFix" result="effect1_dropShadow_47_2"/>
<feBlend mode="normal" in="SourceGraphic" in2="effect1_dropShadow_47_2" result="shape"/>
</filter>
<filter id="filter2_d_47_2" x="-1" y="408" width="48" height="58" filterUnits="userSpaceOnUse" color-interpolation-filters="sRGB">
<feFlood flood-opacity="0" result="BackgroundImageFix"/>
<feColorMatrix in="SourceAlpha" type="matrix" values="0 0 0 0 0 0 0 0 0 0 0 0 0 0 0 0 0 0 127 0" result="hardAlpha"/>
<feOffset dy="4"/>
<feGaussianBlur stdDeviation="2"/>
<feComposite in2="hardAlpha" operator="out"/>
<feColorMatrix type="matrix" values="0 0 0 0 0 0 0 0 0 0 0 0 0 0 0 0 0 0 0.25 0"/>
<feBlend mode="normal" in2="BackgroundImageFix" result="effect1_dropShadow_47_2"/>
<feBlend mode="normal" in="SourceGraphic" in2="effect1_dropShadow_47_2" result="shape"/>
</filter>
<filter id="filter3_d_47_2" x="-1" y="308" width="48" height="48" filterUnits="userSpaceOnUse" color-interpolation-filters="sRGB">
<feFlood flood-opacity="0" result="BackgroundImageFix"/>
<feColorMatrix in="SourceAlpha" type="matrix" values="0 0 0 0 0 0 0 0 0 0 0 0 0 0 0 0 0 0 127 0" result="hardAlpha"/>
<feOffset dy="4"/>
<feGaussianBlur stdDeviation="2"/>
<feComposite in2="hardAlpha" operator="out"/>
<feColorMatrix type="matrix" values="0 0 0 0 0 0 0 0 0 0 0 0 0 0 0 0 0 0 0.25 0"/>
<feBlend mode="normal" in2="BackgroundImageFix" result="effect1_dropShadow_47_2"/>
<feBlend mode="normal" in="SourceGraphic" in2="effect1_dropShadow_47_2" result="shape"/>
</filter>
<filter id="filter4_d_47_2" x="-1" y="258" width="48" height="48" filterUnits="userSpaceOnUse" color-interpolation-filters="sRGB">
<feFlood flood-opacity="0" result="BackgroundImageFix"/>
<feColorMatrix in="SourceAlpha" type="matrix" values="0 0 0 0 0 0 0 0 0 0 0 0 0 0 0 0 0 0 127 0" result="hardAlpha"/>
<feOffset dy="4"/>
<feGaussianBlur stdDeviation="2"/>
<feComposite in2="hardAlpha" operator="out"/>
<feColorMatrix type="matrix" values="0 0 0 0 0 0 0 0 0 0 0 0 0 0 0 0 0 0 0.25 0"/>
<feBlend mode="normal" in2="BackgroundImageFix" result="effect1_dropShadow_47_2"/>
<feBlend mode="normal" in="SourceGraphic" in2="effect1_dropShadow_47_2" result="shape"/>
</filter>
<filter id="filter5_d_47_2" x="-1" y="208" width="48" height="48" filterUnits="userSpaceOnUse" color-interpolation-filters="sRGB">
<feFlood flood-opacity="0" result="BackgroundImageFix"/>
<feColorMatrix in="SourceAlpha" type="matrix" values="0 0 0 0 0 0 0 0 0 0 0 0 0 0 0 0 0 0 127 0" result="hardAlpha"/>
<feOffset dy="4"/>
<feGaussianBlur stdDeviation="2"/>
<feComposite in2="hardAlpha" operator="out"/>
<feColorMatrix type="matrix" values="0 0 0 0 0 0 0 0 0 0 0 0 0 0 0 0 0 0 0.25 0"/>
<feBlend mode="normal" in2="BackgroundImageFix" result="effect1_dropShadow_47_2"/>
<feBlend mode="normal" in="SourceGraphic" in2="effect1_dropShadow_47_2" result="shape"/>
</filter>
<filter id="filter6_d_47_2" x="-1" y="158" width="48" height="48" filterUnits="userSpaceOnUse" color-interpolation-filters="sRGB">
<feFlood flood-opacity="0" result="BackgroundImageFix"/>
<feColorMatrix in="SourceAlpha" type="matrix" values="0 0 0 0 0 0 0 0 0 0 0 0 0 0 0 0 0 0 127 0" result="hardAlpha"/>
<feOffset dy="4"/>
<feGaussianBlur stdDeviation="2"/>
<feComposite in2="hardAlpha" operator="out"/>
<feColorMatrix type="matrix" values="0 0 0 0 0 0 0 0 0 0 0 0 0 0 0 0 0 0 0.25 0"/>
<feBlend mode="normal" in2="BackgroundImageFix" result="effect1_dropShadow_47_2"/>
<feBlend mode="normal" in="SourceGraphic" in2="effect1_dropShadow_47_2" result="shape"/>
</filter>
<filter id="filter7_d_47_2" x="-2" y="108" width="48" height="48" filterUnits="userSpaceOnUse" color-interpolation-filters="sRGB">
<feFlood flood-opacity="0" result="BackgroundImageFix"/>
<feColorMatrix in="SourceAlpha" type="matrix" values="0 0 0 0 0 0 0 0 0 0 0 0 0 0 0 0 0 0 127 0" result="hardAlpha"/>
<feOffset dy="4"/>
<feGaussianBlur stdDeviation="2"/>
<feComposite in2="hardAlpha" operator="out"/>
<feColorMatrix type="matrix" values="0 0 0 0 0 0 0 0 0 0 0 0 0 0 0 0 0 0 0.25 0"/>
<feBlend mode="normal" in2="BackgroundImageFix" result="effect1_dropShadow_47_2"/>
<feBlend mode="normal" in="SourceGraphic" in2="effect1_dropShadow_47_2" result="shape"/>
</filter>
<linearGradient id="paint0_linear_47_2" x1="12.1209" y1="3.16616" x2="7.14762" y2="6.63185" gradientUnits="userSpaceOnUse">
<stop stop-color="white"/>
<stop offset="1" stop-opacity="0"/>
</linearGradient>
<linearGradient id="paint1_linear_47_2" x1="2.41113" y1="9.85419" x2="8.65936" y2="5.50465" gradientUnits="userSpaceOnUse">
<stop stop-color="white"/>
<stop offset="1" stop-opacity="0"/>
</linearGradient>
<linearGradient id="paint2_linear_47_2" x1="13.3147" y1="10.2712" x2="7.61217" y2="8.21543" gradientUnits="userSpaceOnUse">
<stop stop-color="white"/>
<stop offset="1" stop-opacity="0"/>
</linearGradient>
<linearGradient id="paint3_linear_47_2" x1="2.24403" y1="6.21411" x2="8.57852" y2="8.07662" gradientUnits="userSpaceOnUse">
<stop stop-color="white"/>
<stop offset="1" stop-opacity="0"/>
</linearGradient>
<clipPath id="clip0_47_2">
<rect width="846" height="471" fill="white"/>
</clipPath>
</defs>
</svg>
