<svg id="visual" viewBox="0 0 960 300" width="960" height="300" xmlns="http://www.w3.org/2000/svg" xmlns:xlink="http://www.w3.org/1999/xlink" version="1.1"><rect x="0" y="0" width="960" height="300" fill="#040426"></rect><path d="M0 68L22.8 64.5C45.7 61 91.3 54 137 53.7C182.7 53.3 228.3 59.7 274 64.7C319.7 69.7 365.3 73.3 411.2 69.5C457 65.7 503 54.3 548.8 50.8C594.7 47.3 640.3 51.7 686 59.2C731.7 66.7 777.3 77.3 823 79.7C868.7 82 914.3 76 937.2 73L960 70L960 0L937.2 0C914.3 0 868.7 0 823 0C777.3 0 731.7 0 686 0C640.3 0 594.7 0 548.8 0C503 0 457 0 411.2 0C365.3 0 319.7 0 274 0C228.3 0 182.7 0 137 0C91.3 0 45.7 0 22.8 0L0 0Z" fill="#0b2b4c"></path><path d="M0 65L22.8 64C45.7 63 91.3 61 137 63C182.7 65 228.3 71 274 69.5C319.7 68 365.3 59 411.2 57C457 55 503 60 548.8 63.7C594.7 67.3 640.3 69.7 686 66.2C731.7 62.7 777.3 53.3 823 47C868.7 40.7 914.3 37.3 937.2 35.7L960 34L960 0L937.2 0C914.3 0 868.7 0 823 0C777.3 0 731.7 0 686 0C640.3 0 594.7 0 548.8 0C503 0 457 0 411.2 0C365.3 0 319.7 0 274 0C228.3 0 182.7 0 137 0C91.3 0 45.7 0 22.8 0L0 0Z" fill="#072541"></path><path d="M0 47L22.8 48.5C45.7 50 91.3 53 137 51C182.7 49 228.3 42 274 37C319.7 32 365.3 29 411.2 31.7C457 34.3 503 42.7 548.8 48C594.7 53.3 640.3 55.7 686 52.7C731.7 49.7 777.3 41.3 823 40.5C868.7 39.7 914.3 46.3 937.2 49.7L960 53L960 0L937.2 0C914.3 0 868.7 0 823 0C777.3 0 731.7 0 686 0C640.3 0 594.7 0 548.8 0C503 0 457 0 411.2 0C365.3 0 319.7 0 274 0C228.3 0 182.7 0 137 0C91.3 0 45.7 0 22.8 0L0 0Z" fill="#051f37"></path><path d="M0 20L22.8 22.7C45.7 25.3 91.3 30.7 137 30.8C182.7 31 228.3 26 274 27.2C319.7 28.3 365.3 35.7 411.2 36.2C457 36.7 503 30.3 548.8 26.3C594.7 22.3 640.3 20.7 686 23.7C731.7 26.7 777.3 34.3 823 36.5C868.7 38.7 914.3 35.3 937.2 33.7L960 32L960 0L937.2 0C914.3 0 868.7 0 823 0C777.3 0 731.7 0 686 0C640.3 0 594.7 0 548.8 0C503 0 457 0 411.2 0C365.3 0 319.7 0 274 0C228.3 0 182.7 0 137 0C91.3 0 45.7 0 22.8 0L0 0Z" fill="#03192d"></path><path d="M0 28L22.8 27.3C45.7 26.7 91.3 25.3 137 24C182.7 22.7 228.3 21.3 274 19C319.7 16.7 365.3 13.3 411.2 12.8C457 12.3 503 14.7 548.8 16.2C594.7 17.7 640.3 18.3 686 17.3C731.7 16.3 777.3 13.7 823 14C868.7 14.3 914.3 17.7 937.2 19.3L960 21L960 0L937.2 0C914.3 0 868.7 0 823 0C777.3 0 731.7 0 686 0C640.3 0 594.7 0 548.8 0C503 0 457 0 411.2 0C365.3 0 319.7 0 274 0C228.3 0 182.7 0 137 0C91.3 0 45.7 0 22.8 0L0 0Z" fill="#001224"></path></svg>