<svg width="846" height="471" viewBox="0 0 846 471" fill="none" xmlns="http://www.w3.org/2000/svg">
<g clip-path="url(#clip0_43_18)">
<rect width="846" height="471" fill="#040404"/>
<g filter="url(#filter0_dddddd_43_18)">
<path fill-rule="evenodd" clip-rule="evenodd" d="M274.713 97.9757C352.793 136.559 528.134 100.753 582.712 146.976C630.511 187.457 735.422 253.197 755.212 290.476C774.23 326.3 1055.56 206.969 1071.21 241.976C1100.4 307.254 930.299 829.162 822.213 820.976C693.594 811.236 655.212 331.073 497.834 331.073C368.836 301.49 442.518 452.63 310.977 417.654C204.826 389.43 240.809 298.349 152.454 239.24C53.3805 172.961 -165.34 389.4 -232.289 320.976C-292.909 259.019 -159.312 -2.77367 -108.534 -27.5003C-67.6206 -47.4231 6.79166 -42.8283 67.0091 -49.9024C123.194 -56.5028 252.445 -151.154 327.211 -140.024C404.075 -128.582 193.515 57.8519 274.713 97.9757Z" fill="#211C59"/>
</g>
<rect x="-4" y="-4" width="850" height="20" fill="#141414"/>
<circle cx="7.5" cy="7.5" r="7.5" fill="#161616"/>
<rect x="1.80688" y="9.17285" width="11.961" height="1.89104" rx="0.94552" transform="rotate(-35 1.80688 9.17285)" fill="#838383"/>
<path d="M6.50391 5.88477L10.8416 2.84748C11.2692 2.54809 11.8585 2.652 12.1579 3.07959C12.4573 3.50717 12.3534 4.0965 11.9258 4.3959L7.58812 7.43318L6.50391 5.88477Z" fill="url(#paint0_linear_43_18)"/>
<path d="M9.31934 6.23071L3.67371 10.1845C3.24615 10.4839 2.65681 10.3801 2.35738 9.95251C2.05795 9.52495 2.16181 8.93561 2.58937 8.63617L8.235 4.68238L9.31934 6.23071Z" fill="url(#paint1_linear_43_18)"/>
<rect x="2.45068" y="5.33154" width="11.961" height="1.89104" rx="0.94552" transform="rotate(19.6401 2.45068 5.33154)" fill="#838383"/>
<path d="M7.85303 7.24951L12.8303 9.03125C13.3263 9.20881 13.5844 9.75486 13.4069 10.2509C13.2293 10.7469 12.6833 11.0051 12.1873 10.8275L7.21001 9.04576L7.85303 7.24951Z" fill="url(#paint2_linear_43_18)"/>
<path d="M8.83984 9.64111L2.71384 7.44871C2.2178 7.27119 1.9596 6.72516 2.13712 6.22913C2.31465 5.73309 2.86067 5.47489 3.35671 5.65241L9.48271 7.84482L8.83984 9.64111Z" fill="url(#paint3_linear_43_18)"/>
<path d="M23.369 9.988C23.4497 10.1347 23.4827 10.263 23.468 10.373C23.4607 10.483 23.4497 10.5747 23.435 10.648C23.413 10.7287 23.358 10.7983 23.27 10.857C23.1893 10.9083 23.0977 10.9487 22.995 10.978C22.863 11.0147 22.753 11.022 22.665 11C22.555 10.978 22.4633 10.9413 22.39 10.89C22.346 10.8533 22.3057 10.8203 22.269 10.791C22.2323 10.7543 22.1957 10.7213 22.159 10.692C22.1223 10.6553 22.0893 10.6223 22.06 10.593C22.0307 10.5637 22.0087 10.5343 21.994 10.505C21.9793 10.4757 21.9647 10.4573 21.95 10.45C21.9427 10.4353 21.9353 10.4243 21.928 10.417L20.465 8.305L19.013 10.417C19.0057 10.4243 18.9947 10.4353 18.98 10.45C18.9727 10.4573 18.958 10.4757 18.936 10.505C18.9213 10.5343 18.8993 10.5637 18.87 10.593C18.848 10.6223 18.8223 10.6553 18.793 10.692C18.7563 10.7213 18.716 10.7543 18.672 10.791C18.628 10.8203 18.5877 10.8533 18.551 10.89C18.507 10.9193 18.4593 10.9413 18.408 10.956C18.364 10.9707 18.32 10.9853 18.276 11C18.1807 11.022 18.078 11.0147 17.968 10.978C17.7407 10.9267 17.583 10.8167 17.495 10.648C17.451 10.56 17.4327 10.4683 17.44 10.373C17.4473 10.2703 17.4693 10.1677 17.506 10.065C17.55 9.96233 17.5977 9.86333 17.649 9.768C17.7077 9.67267 17.7663 9.581 17.825 9.493C17.8543 9.45633 17.88 9.42333 17.902 9.394C17.9313 9.36467 17.9607 9.33167 17.99 9.295C18.0853 9.17033 18.177 9.04567 18.265 8.921C18.353 8.789 18.4483 8.64967 18.551 8.503L19.574 7.018L18.067 4.84L17.935 4.653C17.9057 4.609 17.8763 4.56867 17.847 4.532C17.8177 4.49533 17.7883 4.45133 17.759 4.4C17.7297 4.36333 17.7003 4.323 17.671 4.279C17.6417 4.235 17.616 4.18367 17.594 4.125C17.572 4.081 17.55 4.04067 17.528 4.004C17.5133 3.96 17.4987 3.90867 17.484 3.85C17.462 3.762 17.4547 3.68133 17.462 3.608C17.484 3.51267 17.5317 3.432 17.605 3.366C17.6343 3.32933 17.6673 3.3 17.704 3.278C17.748 3.256 17.7883 3.234 17.825 3.212C17.8983 3.18267 17.9643 3.16067 18.023 3.146C18.0817 3.13133 18.144 3.124 18.21 3.124C18.342 3.13133 18.4667 3.179 18.584 3.267C18.7307 3.36233 18.8627 3.47967 18.98 3.619C19.0313 3.69967 19.0827 3.77667 19.134 3.85C19.1853 3.916 19.2403 3.98567 19.299 4.059L19.31 4.103C19.4933 4.345 19.6583 4.57967 19.805 4.807C19.959 5.027 20.1277 5.26167 20.311 5.511C20.3403 5.54767 20.366 5.58433 20.388 5.621C20.41 5.65767 20.4357 5.69433 20.465 5.731C20.4943 5.69433 20.52 5.65767 20.542 5.621C20.564 5.58433 20.5897 5.54767 20.619 5.511C20.7877 5.26167 20.949 5.027 21.103 4.807C21.2643 4.57967 21.433 4.345 21.609 4.103L21.631 4.059C21.6897 3.98567 21.7447 3.916 21.796 3.85C21.8547 3.77667 21.9097 3.69967 21.961 3.619C22.0783 3.47967 22.2103 3.36233 22.357 3.267C22.467 3.179 22.5917 3.13133 22.731 3.124C22.8483 3.124 22.973 3.15333 23.105 3.212C23.193 3.26333 23.259 3.31467 23.303 3.366C23.391 3.432 23.446 3.51267 23.468 3.608C23.4753 3.68133 23.468 3.762 23.446 3.85C23.4313 3.90867 23.413 3.96 23.391 4.004C23.3763 4.04067 23.3507 4.081 23.314 4.125C23.27 4.235 23.2223 4.32667 23.171 4.4C23.1417 4.45133 23.1123 4.49533 23.083 4.532C23.0537 4.56867 23.028 4.609 23.006 4.653L22.874 4.84L21.356 7.018L22.379 8.503L22.973 9.339C23.039 9.449 23.105 9.55533 23.171 9.658C23.237 9.76067 23.303 9.87067 23.369 9.988ZM26.206 3.058C26.2573 3.04333 26.305 3.03233 26.349 3.025C26.393 3.01033 26.437 2.99933 26.481 2.992C26.5323 2.97733 26.5946 2.97 26.668 2.97C26.7486 2.96267 26.822 2.96633 26.888 2.981C26.9613 2.98833 27.0273 3.01033 27.086 3.047C27.152 3.07633 27.1996 3.124 27.229 3.19C27.2583 3.26333 27.2766 3.35133 27.284 3.454C27.2986 3.54933 27.306 3.64833 27.306 3.751C27.306 3.85367 27.3023 3.95633 27.295 4.059C27.295 4.15433 27.295 4.24233 27.295 4.323V9.944C27.295 10.0247 27.295 10.109 27.295 10.197C27.3023 10.2777 27.3023 10.362 27.295 10.45C27.2876 10.538 27.2656 10.6223 27.229 10.703C27.1923 10.7763 27.1373 10.8387 27.064 10.89C26.9613 10.9707 26.822 11.011 26.646 11.011C26.4773 11.0183 26.3306 11 26.206 10.956C26.074 10.912 25.9933 10.8277 25.964 10.703C25.942 10.5783 25.931 10.4537 25.931 10.329C25.8796 9.361 25.854 8.415 25.854 7.491C25.8613 6.55967 25.865 5.60267 25.865 4.62C25.8503 4.65667 25.799 4.68967 25.711 4.719C25.6303 4.74833 25.535 4.774 25.425 4.796C25.3223 4.818 25.2233 4.83633 25.128 4.851C25.0326 4.86567 24.9703 4.873 24.941 4.873C24.7503 4.895 24.5743 4.87667 24.413 4.818C24.259 4.752 24.171 4.60533 24.149 4.378C24.1196 4.14333 24.171 3.96 24.303 3.828C24.4423 3.696 24.6183 3.597 24.831 3.531C25.0656 3.45033 25.293 3.36967 25.513 3.289C25.7403 3.201 25.9713 3.124 26.206 3.058ZM30.8274 3.476C31.3188 3.29267 31.7624 3.212 32.1584 3.234C32.5618 3.256 32.9211 3.35867 33.2364 3.542C33.5518 3.718 33.8194 3.95633 34.0394 4.257C34.2668 4.55767 34.4501 4.895 34.5894 5.269C34.6994 5.54767 34.7838 5.841 34.8424 6.149C34.9011 6.457 34.9341 6.765 34.9414 7.073C34.9561 7.37367 34.9451 7.67067 34.9084 7.964C34.8791 8.25733 34.8278 8.52867 34.7544 8.778C34.7104 8.94667 34.6591 9.10067 34.6004 9.24C34.5418 9.37933 34.4721 9.51867 34.3914 9.658C34.2081 9.97333 33.9698 10.23 33.6764 10.428C33.3904 10.626 33.0751 10.7653 32.7304 10.846C32.4958 10.9047 32.2538 10.934 32.0044 10.934C31.7551 10.9267 31.5094 10.8937 31.2674 10.835C31.0254 10.769 30.7908 10.6773 30.5634 10.56C30.3434 10.4353 30.1418 10.2813 29.9584 10.098C29.7311 9.878 29.5441 9.625 29.3974 9.339C29.2508 9.04567 29.1371 8.74133 29.0564 8.426C28.9758 8.10333 28.9244 7.78067 28.9024 7.458C28.8804 7.13533 28.8804 6.82733 28.9024 6.534C28.9244 6.26267 28.9758 5.973 29.0564 5.665C29.1444 5.357 29.2691 5.06 29.4304 4.774C29.5918 4.488 29.7861 4.23133 30.0134 4.004C30.2481 3.76933 30.5194 3.59333 30.8274 3.476ZM33.4014 8.184C33.4894 7.83933 33.5261 7.45067 33.5114 7.018C33.4968 6.58533 33.4271 6.17833 33.3024 5.797C33.2218 5.56233 33.1191 5.357 32.9944 5.181C32.8771 4.99767 32.7341 4.85833 32.5654 4.763C32.4041 4.66767 32.2134 4.62 31.9934 4.62C31.7734 4.62 31.5278 4.686 31.2564 4.818C31.0951 4.89867 30.9558 5.00867 30.8384 5.148C30.7284 5.28733 30.6368 5.445 30.5634 5.621C30.4974 5.797 30.4424 5.98033 30.3984 6.171C30.3618 6.36167 30.3398 6.545 30.3324 6.721C30.3178 6.91167 30.3141 7.11333 30.3214 7.326C30.3288 7.53133 30.3508 7.74033 30.3874 7.953C30.4314 8.15833 30.4901 8.35633 30.5634 8.547C30.6368 8.73033 30.7358 8.89533 30.8604 9.042C31.0511 9.262 31.2711 9.416 31.5204 9.504C31.7771 9.58467 32.0301 9.59567 32.2794 9.537C32.6828 9.449 32.9908 9.18133 33.2034 8.734C33.2914 8.57267 33.3574 8.38933 33.4014 8.184ZM41.5394 7.799C41.576 7.90167 41.6017 8.019 41.6164 8.151C41.6384 8.27567 41.6494 8.404 41.6494 8.536C41.6494 8.668 41.6384 8.8 41.6164 8.932C41.6017 9.05667 41.5797 9.16667 41.5504 9.262C41.433 9.67267 41.1984 10.0173 40.8464 10.296C40.4944 10.5673 40.091 10.7653 39.6364 10.89C39.189 11.0147 38.7234 11.0587 38.2394 11.022C37.7627 10.9853 37.3374 10.8643 36.9634 10.659C36.7287 10.527 36.527 10.3657 36.3584 10.175C36.1897 9.98433 36.0467 9.77167 35.9294 9.537C35.8854 9.45633 35.856 9.36467 35.8414 9.262C35.834 9.152 35.845 9.04933 35.8744 8.954C35.9037 8.85133 35.9514 8.76333 36.0174 8.69C36.0834 8.60933 36.175 8.55433 36.2924 8.525C36.3657 8.51033 36.4464 8.503 36.5344 8.503C36.6297 8.503 36.7214 8.51767 36.8094 8.547C36.8974 8.569 36.978 8.60933 37.0514 8.668C37.1247 8.71933 37.1834 8.79267 37.2274 8.888C37.308 9.042 37.4217 9.185 37.5684 9.317C37.7224 9.44167 37.8837 9.54433 38.0524 9.625C38.2944 9.70567 38.5364 9.73867 38.7784 9.724C39.0277 9.70933 39.2514 9.65433 39.4494 9.559C39.6547 9.46367 39.8197 9.33533 39.9444 9.174C40.069 9.00533 40.1314 8.81467 40.1314 8.602C40.1314 8.426 40.1057 8.283 40.0544 8.173C40.003 8.05567 39.9297 7.96033 39.8344 7.887C39.7464 7.80633 39.6364 7.74033 39.5044 7.689C39.3797 7.63767 39.2404 7.59367 39.0864 7.557C38.9104 7.52033 38.7307 7.49467 38.5474 7.48C38.3714 7.46533 38.1917 7.447 38.0084 7.425C37.825 7.403 37.6454 7.37367 37.4694 7.337C37.2934 7.30033 37.121 7.24533 36.9524 7.172C36.615 7.03267 36.3584 6.82 36.1824 6.534C36.0064 6.248 35.9 5.94 35.8634 5.61C35.834 5.28 35.8744 4.95367 35.9844 4.631C36.0944 4.301 36.2704 4.01867 36.5124 3.784C36.747 3.57133 37.0257 3.421 37.3484 3.333C37.6784 3.23767 38.0414 3.18267 38.4374 3.168C38.6574 3.16067 38.8774 3.168 39.0974 3.19C39.3247 3.212 39.541 3.24867 39.7464 3.3C39.959 3.35133 40.1534 3.41733 40.3294 3.498C40.5127 3.57867 40.6704 3.674 40.8024 3.784C40.8977 3.85733 40.993 3.95633 41.0884 4.081C41.1837 4.19833 41.257 4.32667 41.3084 4.466C41.3597 4.598 41.3744 4.72633 41.3524 4.851C41.3377 4.97567 41.2607 5.082 41.1214 5.17C41.004 5.24333 40.8904 5.27633 40.7804 5.269C40.6777 5.25433 40.5787 5.22133 40.4834 5.17C40.388 5.11133 40.2964 5.04533 40.2084 4.972C40.1204 4.89867 40.0397 4.83267 39.9664 4.774C39.7684 4.62733 39.5227 4.52833 39.2294 4.477C38.936 4.42567 38.661 4.41467 38.4044 4.444C38.243 4.466 38.0927 4.50267 37.9534 4.554C37.814 4.60533 37.693 4.675 37.5904 4.763C37.495 4.851 37.418 4.961 37.3594 5.093C37.308 5.21767 37.2897 5.36067 37.3044 5.522C37.3117 5.63933 37.3447 5.73833 37.4034 5.819C37.4694 5.89967 37.5464 5.96567 37.6344 6.017C37.7297 6.06833 37.8324 6.10867 37.9424 6.138C38.0524 6.16733 38.1624 6.18933 38.2724 6.204C38.6024 6.248 38.9324 6.281 39.2624 6.303C39.5924 6.325 39.915 6.39833 40.2304 6.523C40.553 6.64767 40.828 6.81633 41.0554 7.029C41.2827 7.24167 41.444 7.49833 41.5394 7.799ZM47.6158 10.164C47.6304 10.2007 47.6378 10.2557 47.6378 10.329C47.6378 10.395 47.6378 10.45 47.6378 10.494C47.6378 10.5527 47.6268 10.6077 47.6048 10.659C47.5828 10.7103 47.5534 10.758 47.5168 10.802C47.4508 10.89 47.3554 10.956 47.2308 11C47.0548 11.0587 46.8898 11.088 46.7358 11.088C46.6551 11.0953 46.5708 11.099 46.4828 11.099C46.3948 11.099 46.3068 11.1063 46.2188 11.121H46.1748C45.6101 11.1283 45.0271 11.1283 44.4258 11.121C44.2791 11.1137 44.1141 11.1137 43.9308 11.121C43.7474 11.1357 43.5678 11.132 43.3918 11.11C43.2158 11.0953 43.0544 11.055 42.9078 10.989C42.7684 10.9157 42.6694 10.802 42.6108 10.648C42.5961 10.6113 42.5851 10.5783 42.5778 10.549C42.5704 10.5123 42.5668 10.4757 42.5668 10.439C42.5374 10.1897 42.5264 9.944 42.5338 9.702C42.5411 9.46 42.5448 9.22167 42.5448 8.987L42.5668 7.392V5.918C42.5668 5.654 42.5668 5.41933 42.5668 5.214C42.5741 5.00867 42.5814 4.78133 42.5888 4.532V4.477C42.5961 4.40367 42.5998 4.33033 42.5998 4.257C42.6071 4.18367 42.6108 4.11033 42.6108 4.037C42.6254 3.86833 42.6658 3.72533 42.7318 3.608C42.7758 3.498 42.8528 3.41 42.9628 3.344C43.0581 3.278 43.1718 3.245 43.3038 3.245C43.3551 3.245 43.4028 3.24867 43.4468 3.256C43.4981 3.256 43.5458 3.25967 43.5898 3.267C43.6338 3.27433 43.6741 3.289 43.7107 3.311C43.7548 3.333 43.7988 3.36233 43.8428 3.399C43.8868 3.45033 43.9271 3.51267 43.9638 3.586C43.9931 3.66667 44.0114 3.74733 44.0188 3.828C44.0261 3.87933 44.0334 3.927 44.0408 3.971C44.0481 4.015 44.0518 4.059 44.0518 4.103C44.0371 4.147 44.0298 4.191 44.0298 4.235C44.0298 4.279 44.0298 4.31933 44.0298 4.356V4.554L43.9858 9.735L46.1638 9.757H46.6808C46.7248 9.757 46.7724 9.76067 46.8238 9.768C46.8751 9.768 46.9264 9.77167 46.9778 9.779C47.0364 9.78633 47.0878 9.79367 47.1318 9.801C47.1758 9.80833 47.2198 9.81933 47.2638 9.834C47.3444 9.856 47.4104 9.89267 47.4618 9.944C47.5424 10.0173 47.5938 10.0907 47.6158 10.164ZM55.3041 10.252C55.3115 10.296 55.3151 10.34 55.3151 10.384C55.3225 10.4207 55.3261 10.4647 55.3261 10.516C55.3261 10.604 55.3005 10.6847 55.2491 10.758C55.2271 10.7947 55.1978 10.8313 55.1611 10.868C55.1245 10.8973 55.0805 10.923 55.0291 10.945C54.8458 11.0477 54.6515 11.0843 54.4461 11.055C54.3435 11.0257 54.2518 10.978 54.1711 10.912C54.1565 10.8973 54.1455 10.89 54.1381 10.89C54.1308 10.8827 54.1235 10.8717 54.1161 10.857C54.1088 10.8497 54.1015 10.8423 54.0941 10.835C54.0868 10.8203 54.0758 10.8093 54.0611 10.802C54.0245 10.7653 53.9951 10.7323 53.9731 10.703C53.9511 10.6663 53.9291 10.6297 53.9071 10.593C53.8925 10.5563 53.8741 10.5233 53.8521 10.494C53.8375 10.4573 53.8191 10.4207 53.7971 10.384C53.7825 10.3547 53.7678 10.329 53.7531 10.307C53.7385 10.2777 53.7275 10.2483 53.7201 10.219C53.6908 10.153 53.6725 10.0943 53.6651 10.043L53.4341 9.504C52.9281 9.504 52.4221 9.50767 51.9161 9.515C51.4175 9.515 50.9151 9.51133 50.4091 9.504L50.1781 10.043C50.1635 10.0723 50.1525 10.1017 50.1451 10.131C50.1451 10.1603 50.1378 10.1897 50.1231 10.219C50.1085 10.2483 50.0938 10.2777 50.0791 10.307C50.0718 10.329 50.0608 10.3547 50.0461 10.384C50.0241 10.4207 50.0021 10.4573 49.9801 10.494C49.9655 10.5233 49.9471 10.5563 49.9251 10.593C49.9105 10.6297 49.8921 10.6663 49.8701 10.703C49.8481 10.7323 49.8188 10.7653 49.7821 10.802C49.7675 10.8093 49.7565 10.8203 49.7491 10.835C49.7418 10.8423 49.7345 10.8497 49.7271 10.857C49.7198 10.8717 49.7125 10.8827 49.7051 10.89C49.6978 10.89 49.6868 10.8973 49.6721 10.912C49.5915 10.978 49.4998 11.0257 49.3971 11.055C49.1918 11.0843 48.9975 11.0477 48.8141 10.945C48.7628 10.923 48.7188 10.8973 48.6821 10.868C48.6455 10.8313 48.6161 10.7947 48.5941 10.758C48.5428 10.6847 48.5171 10.604 48.5171 10.516C48.5171 10.4647 48.5171 10.4207 48.5171 10.384C48.5245 10.34 48.5318 10.296 48.5391 10.252C48.5538 10.186 48.5721 10.12 48.5941 10.054C48.6161 9.988 48.6271 9.955 48.6271 9.955L50.9151 4.323L50.9811 4.147C50.9958 4.103 51.0141 4.06267 51.0361 4.026C51.0581 3.98933 51.0765 3.94533 51.0911 3.894C51.1278 3.79867 51.1681 3.71433 51.2121 3.641C51.2341 3.597 51.2598 3.55667 51.2891 3.52C51.3185 3.48333 51.3478 3.44667 51.3771 3.41C51.4211 3.35133 51.4835 3.30367 51.5641 3.267C51.6668 3.23033 51.7841 3.212 51.9161 3.212C52.0555 3.212 52.1765 3.23033 52.2791 3.267C52.3598 3.30367 52.4221 3.35133 52.4661 3.41C52.5175 3.476 52.5725 3.553 52.6311 3.641C52.6751 3.71433 52.7155 3.79867 52.7521 3.894C52.7668 3.94533 52.7851 3.98933 52.8071 4.026C52.8291 4.06267 52.8475 4.103 52.8621 4.147L52.9281 4.323L55.2161 9.955C55.2161 9.955 55.2271 9.988 55.2491 10.054C55.2711 10.12 55.2895 10.186 55.3041 10.252ZM52.6971 7.557C52.6018 7.34433 52.5028 7.12433 52.4001 6.897C52.3048 6.66967 52.2021 6.43867 52.0921 6.204C52.0628 6.138 52.0335 6.072 52.0041 6.006C51.9748 5.93267 51.9455 5.863 51.9161 5.797C51.8941 5.863 51.8685 5.93267 51.8391 6.006C51.8098 6.072 51.7805 6.138 51.7511 6.204C51.6411 6.43867 51.5348 6.66967 51.4321 6.897C51.3368 7.12433 51.2415 7.34433 51.1461 7.557L50.9481 8.041H52.8951L52.6971 7.557ZM60.5426 6.941C60.7552 7.08033 60.9349 7.24533 61.0816 7.436C61.2356 7.61933 61.3566 7.84667 61.4446 8.118C61.5399 8.41867 61.5876 8.723 61.5876 9.031C61.5949 9.33167 61.5399 9.614 61.4226 9.878C61.3126 10.1347 61.1329 10.362 60.8836 10.56C60.6416 10.7507 60.3226 10.8863 59.9266 10.967C59.7139 11.0183 59.4646 11.0587 59.1786 11.088C58.8926 11.1173 58.6359 11.132 58.4086 11.132C58.1226 11.1393 57.8256 11.1393 57.5176 11.132C57.2169 11.132 56.9236 11.1027 56.6376 11.044C56.5129 11.0073 56.4212 10.945 56.3626 10.857C56.3112 10.7617 56.2746 10.6553 56.2526 10.538C56.2232 10.472 56.2086 10.406 56.2086 10.34V4.092C56.2086 3.88667 56.2489 3.729 56.3296 3.619C56.4176 3.50167 56.5312 3.41733 56.6706 3.366C56.8099 3.30733 56.9676 3.27433 57.1436 3.267C57.3196 3.25233 57.5029 3.245 57.6936 3.245C57.8402 3.245 57.9869 3.245 58.1336 3.245C58.2876 3.23767 58.4416 3.23767 58.5956 3.245C58.8376 3.25233 59.0869 3.27433 59.3436 3.311C59.6076 3.34033 59.8569 3.399 60.0916 3.487C60.2016 3.52367 60.3189 3.575 60.4436 3.641C60.5682 3.69967 60.6672 3.773 60.7406 3.861C60.9752 4.07367 61.1476 4.323 61.2576 4.609C61.3749 4.88767 61.4262 5.17367 61.4116 5.467C61.3969 5.753 61.3162 6.028 61.1696 6.292C61.0302 6.556 60.8212 6.77233 60.5426 6.941ZM58.6176 9.856C58.8449 9.84133 59.0759 9.81567 59.3106 9.779C59.5452 9.74233 59.7066 9.67267 59.7946 9.57C59.8899 9.45267 59.9559 9.317 59.9926 9.163C60.0366 9.00167 60.0476 8.84033 60.0256 8.679C60.0109 8.51033 59.9632 8.35267 59.8826 8.206C59.8092 8.052 59.7102 7.931 59.5856 7.843C59.4169 7.711 59.2226 7.62667 59.0026 7.59C58.7826 7.546 58.5662 7.524 58.3536 7.524C58.2509 7.524 58.1556 7.52767 58.0676 7.535C57.9869 7.535 57.9136 7.546 57.8476 7.568C57.7889 7.58267 57.7449 7.61567 57.7156 7.667C57.6862 7.71833 57.6716 7.79533 57.6716 7.898C57.6862 8.08867 57.6862 8.27933 57.6716 8.47C57.6569 8.66067 57.6496 8.844 57.6496 9.02C57.6496 9.12267 57.6459 9.23633 57.6386 9.361C57.6386 9.47833 57.6789 9.57733 57.7596 9.658C57.8402 9.73867 57.9576 9.79367 58.1116 9.823C58.2656 9.85233 58.4342 9.86333 58.6176 9.856ZM58.8376 4.576C58.6102 4.56867 58.4196 4.565 58.2656 4.565C58.1189 4.55767 58.0016 4.56867 57.9136 4.598C57.8329 4.62 57.7742 4.675 57.7376 4.763C57.7082 4.84367 57.6972 4.96833 57.7046 5.137C57.7046 5.27633 57.7009 5.41567 57.6936 5.555C57.6936 5.687 57.6936 5.819 57.6936 5.951C57.6936 6.09767 57.7412 6.20767 57.8366 6.281C57.9319 6.347 58.0492 6.38733 58.1886 6.402C58.3352 6.41667 58.4856 6.41667 58.6396 6.402C58.8009 6.38733 58.9402 6.369 59.0576 6.347C59.3216 6.303 59.5232 6.215 59.6626 6.083C59.8092 5.94367 59.8936 5.742 59.9156 5.478C59.9449 5.148 59.8569 4.92067 59.6516 4.796C59.4536 4.664 59.1822 4.59067 58.8376 4.576ZM68.0296 7.799C68.0663 7.90167 68.0919 8.019 68.1066 8.151C68.1286 8.27567 68.1396 8.404 68.1396 8.536C68.1396 8.668 68.1286 8.8 68.1066 8.932C68.0919 9.05667 68.0699 9.16667 68.0406 9.262C67.9233 9.67267 67.6886 10.0173 67.3366 10.296C66.9846 10.5673 66.5813 10.7653 66.1266 10.89C65.6793 11.0147 65.2136 11.0587 64.7296 11.022C64.2529 10.9853 63.8276 10.8643 63.4536 10.659C63.2189 10.527 63.0173 10.3657 62.8486 10.175C62.6799 9.98433 62.5369 9.77167 62.4196 9.537C62.3756 9.45633 62.3463 9.36467 62.3316 9.262C62.3243 9.152 62.3353 9.04933 62.3646 8.954C62.3939 8.85133 62.4416 8.76333 62.5076 8.69C62.5736 8.60933 62.6653 8.55433 62.7826 8.525C62.8559 8.51033 62.9366 8.503 63.0246 8.503C63.1199 8.503 63.2116 8.51767 63.2996 8.547C63.3876 8.569 63.4683 8.60933 63.5416 8.668C63.6149 8.71933 63.6736 8.79267 63.7176 8.888C63.7983 9.042 63.9119 9.185 64.0586 9.317C64.2126 9.44167 64.3739 9.54433 64.5426 9.625C64.7846 9.70567 65.0266 9.73867 65.2686 9.724C65.5179 9.70933 65.7416 9.65433 65.9396 9.559C66.1449 9.46367 66.3099 9.33533 66.4346 9.174C66.5593 9.00533 66.6216 8.81467 66.6216 8.602C66.6216 8.426 66.5959 8.283 66.5446 8.173C66.4933 8.05567 66.4199 7.96033 66.3246 7.887C66.2366 7.80633 66.1266 7.74033 65.9946 7.689C65.8699 7.63767 65.7306 7.59367 65.5766 7.557C65.4006 7.52033 65.2209 7.49467 65.0376 7.48C64.8616 7.46533 64.6819 7.447 64.4986 7.425C64.3153 7.403 64.1356 7.37367 63.9596 7.337C63.7836 7.30033 63.6113 7.24533 63.4426 7.172C63.1053 7.03267 62.8486 6.82 62.6726 6.534C62.4966 6.248 62.3903 5.94 62.3536 5.61C62.3243 5.28 62.3646 4.95367 62.4746 4.631C62.5846 4.301 62.7606 4.01867 63.0026 3.784C63.2373 3.57133 63.5159 3.421 63.8386 3.333C64.1686 3.23767 64.5316 3.18267 64.9276 3.168C65.1476 3.16067 65.3676 3.168 65.5876 3.19C65.8149 3.212 66.0313 3.24867 66.2366 3.3C66.4493 3.35133 66.6436 3.41733 66.8196 3.498C67.0029 3.57867 67.1606 3.674 67.2926 3.784C67.3879 3.85733 67.4833 3.95633 67.5786 4.081C67.6739 4.19833 67.7473 4.32667 67.7986 4.466C67.8499 4.598 67.8646 4.72633 67.8426 4.851C67.8279 4.97567 67.7509 5.082 67.6116 5.17C67.4943 5.24333 67.3806 5.27633 67.2706 5.269C67.1679 5.25433 67.0689 5.22133 66.9736 5.17C66.8783 5.11133 66.7866 5.04533 66.6986 4.972C66.6106 4.89867 66.5299 4.83267 66.4566 4.774C66.2586 4.62733 66.0129 4.52833 65.7196 4.477C65.4263 4.42567 65.1513 4.41467 64.8946 4.444C64.7333 4.466 64.5829 4.50267 64.4436 4.554C64.3043 4.60533 64.1833 4.675 64.0806 4.763C63.9853 4.851 63.9083 4.961 63.8496 5.093C63.7983 5.21767 63.7799 5.36067 63.7946 5.522C63.8019 5.63933 63.8349 5.73833 63.8936 5.819C63.9596 5.89967 64.0366 5.96567 64.1246 6.017C64.2199 6.06833 64.3226 6.10867 64.4326 6.138C64.5426 6.16733 64.6526 6.18933 64.7626 6.204C65.0926 6.248 65.4226 6.281 65.7526 6.303C66.0826 6.325 66.4053 6.39833 66.7206 6.523C67.0433 6.64767 67.3183 6.81633 67.5456 7.029C67.7729 7.24167 67.9343 7.49833 68.0296 7.799Z" fill="#BABABA"/>
<rect x="801" y="6" width="11" height="1" fill="#D9D9D9"/>
<rect x="833" y="9.77808" width="11" height="1" transform="rotate(-45 833 9.77808)" fill="#D9D9D9"/>
<rect x="833.707" y="2" width="11" height="1" transform="rotate(45 833.707 2)" fill="#D9D9D9"/>
<rect x="818" y="10" width="9" height="1" fill="#D9D9D9"/>
<rect x="818" y="2" width="9" height="1" fill="#D9D9D9"/>
<rect x="818" y="11" width="9" height="1" transform="rotate(-90 818 11)" fill="#D9D9D9"/>
<rect x="826" y="11" width="9" height="1" transform="rotate(-90 826 11)" fill="#D9D9D9"/>
<g filter="url(#filter1_b_43_18)">
<rect x="294" y="15" width="255" height="455" fill="#2C2C2C" fill-opacity="0.8"/>
</g>
<g filter="url(#filter2_d_43_18)">
<rect x="294" y="15" width="255" height="82" fill="#212121"/>
</g>
<rect x="315" y="189" width="212" height="41" rx="15" fill="#111111"/>
<rect x="315" y="255" width="212" height="41" rx="15" fill="#111111"/>
<path d="M404.561 67H400.75L396.466 59.5908C396.325 59.3535 396.176 58.9756 396.018 58.457H395.952C395.881 58.6943 395.723 59.0811 395.477 59.6172L391.1 67H387.264L393.987 56.7563L387.817 46.5786H391.693L395.411 53.3945C395.684 53.8955 395.912 54.4053 396.097 54.9238H396.149C396.22 54.748 396.47 54.2163 396.901 53.3286L400.856 46.5786H404.442L398.127 56.7036L404.561 67ZM415.569 46.0381V67H412.378V49.5054C411.71 50.0854 410.95 50.6128 410.098 51.0874C409.245 51.562 408.432 51.9004 407.659 52.1025V49.0967C409.909 48.3848 411.895 47.3652 413.618 46.0381H415.569ZM422.2 57.0464C422.2 53.8208 423.101 51.2148 424.903 49.2285C426.713 47.2334 429.152 46.2358 432.22 46.2358C435.094 46.2358 437.401 47.2026 439.141 49.1362C440.881 51.0698 441.751 53.5483 441.751 56.5718C441.751 59.7798 440.864 62.377 439.088 64.3633C437.313 66.3496 434.914 67.3428 431.89 67.3428C429.007 67.3428 426.669 66.3848 424.876 64.4688C423.092 62.5527 422.2 60.0786 422.2 57.0464ZM425.522 56.8223C425.522 59.0723 426.098 60.9268 427.25 62.3857C428.401 63.8359 429.957 64.561 431.917 64.561C433.973 64.561 435.573 63.8711 436.715 62.4912C437.858 61.1025 438.429 59.2305 438.429 56.875C438.429 54.4668 437.875 52.5596 436.768 51.1533C435.669 49.7471 434.101 49.0439 432.062 49.0439C430.075 49.0439 428.489 49.7734 427.302 51.2324C426.116 52.6914 425.522 54.5547 425.522 56.8223ZM444.612 62.7681C446.177 64.0425 448.018 64.6797 450.136 64.6797C452.843 64.6797 454.197 63.7524 454.197 61.8979C454.197 61.3618 454.047 60.8784 453.749 60.4478C453.45 60.0171 453.045 59.6436 452.536 59.3271C452.035 59.002 451.037 58.4834 449.543 57.7715C447.706 56.8926 446.423 56.0005 445.693 55.0952C444.964 54.1899 444.599 53.1265 444.599 51.9048C444.599 50.147 445.293 48.7627 446.682 47.752C448.071 46.7412 449.846 46.2358 452.008 46.2358C454.056 46.2358 455.603 46.4863 456.649 46.9873V50.2305C455.392 49.3604 453.823 48.9253 451.942 48.9253C450.738 48.9253 449.767 49.167 449.029 49.6504C448.291 50.1338 447.921 50.7974 447.921 51.6411C447.921 52.4058 448.189 53.0342 448.726 53.5264C449.271 54.0186 450.413 54.6777 452.153 55.5039C454.184 56.4531 455.585 57.4067 456.359 58.3647C457.132 59.314 457.519 60.4082 457.519 61.6475C457.519 63.4932 456.851 64.9038 455.515 65.8794C454.179 66.855 452.329 67.3428 449.965 67.3428C449.095 67.3428 448.128 67.2373 447.064 67.0264C446.001 66.8154 445.184 66.5342 444.612 66.1826V62.7681Z" fill="white"/>
<path d="M342.715 209.925C342.715 212.752 341.423 214.165 338.837 214.165C336.357 214.165 335.117 212.798 335.117 210.064V204.167H336.641V210.026C336.641 211.893 337.411 212.826 338.951 212.826C340.445 212.826 341.192 211.924 341.192 210.122V204.167H342.715V209.925ZM344.601 211.962C345.354 212.576 346.24 212.883 347.26 212.883C348.564 212.883 349.215 212.436 349.215 211.543C349.215 211.285 349.143 211.053 349 210.845C348.856 210.638 348.661 210.458 348.416 210.306C348.174 210.149 347.694 209.899 346.975 209.557C346.09 209.133 345.472 208.704 345.121 208.268C344.77 207.832 344.594 207.32 344.594 206.732C344.594 205.886 344.929 205.219 345.597 204.732C346.266 204.246 347.121 204.002 348.162 204.002C349.148 204.002 349.892 204.123 350.396 204.364V205.926C349.791 205.507 349.035 205.297 348.13 205.297C347.55 205.297 347.083 205.414 346.727 205.646C346.372 205.879 346.194 206.199 346.194 206.605C346.194 206.973 346.323 207.276 346.581 207.513C346.843 207.75 347.394 208.067 348.231 208.465C349.209 208.922 349.884 209.381 350.256 209.842C350.629 210.299 350.815 210.826 350.815 211.423C350.815 212.312 350.493 212.991 349.85 213.46C349.207 213.93 348.316 214.165 347.178 214.165C346.759 214.165 346.293 214.114 345.781 214.013C345.269 213.911 344.876 213.776 344.601 213.606V211.962ZM358.108 214H352.662V204.167H357.886V205.475H354.186V208.37H357.62V209.671H354.186V212.692H358.108V214ZM367.363 214H365.58L363.98 211.321C363.667 210.797 363.381 210.439 363.123 210.249C362.869 210.058 362.577 209.963 362.247 209.963H361.422V214H359.898V204.167H363.028C364.048 204.167 364.835 204.398 365.389 204.859C365.948 205.316 366.227 205.966 366.227 206.808C366.227 207.468 366.035 208.033 365.649 208.503C365.264 208.973 364.727 209.301 364.037 209.487V209.512C364.477 209.665 364.97 210.181 365.516 211.061L367.363 214ZM361.422 205.424V208.7H362.774C363.337 208.7 363.785 208.537 364.12 208.211C364.458 207.885 364.627 207.47 364.627 206.967C364.627 205.938 364.018 205.424 362.799 205.424H361.422ZM376.815 214H375.114L370.41 206.751C370.237 206.484 370.11 206.254 370.029 206.059H369.991C370.029 206.313 370.048 206.791 370.048 207.494V214H368.569V204.167H370.372L374.936 211.277C375.152 211.615 375.296 211.85 375.368 211.981H375.399C375.353 211.677 375.33 211.207 375.33 210.572V204.167H376.815V214ZM387.257 214H385.581L384.661 211.442H380.725L379.849 214H378.173L381.88 204.167H383.575L387.257 214ZM384.235 210.179L382.864 206.3C382.813 206.161 382.763 205.913 382.712 205.558H382.667C382.629 205.85 382.576 206.093 382.509 206.288L381.144 210.179H384.235ZM397.553 214V207.652C397.553 207.098 397.582 206.44 397.642 205.678H397.604C397.477 206.224 397.377 206.582 397.305 206.751L394.315 214H393.319L390.316 206.808C390.24 206.626 390.141 206.25 390.018 205.678H389.98C390.022 206.271 390.043 206.986 390.043 207.824V214H388.628V204.167H390.754L393.414 210.661C393.621 211.169 393.759 211.59 393.827 211.924H393.871C393.951 211.658 394.1 211.23 394.315 210.642L397.02 204.167H399.063V214H397.553ZM406.973 214H401.526V204.167H406.75V205.475H403.05V208.37H406.484V209.671H403.05V212.692H406.973V214Z" fill="#484848"/>
<path d="M336.755 276.401V280H335.231V270.167H338.202C339.315 270.167 340.168 270.426 340.76 270.942C341.353 271.454 341.649 272.199 341.649 273.176C341.649 274.162 341.296 274.956 340.589 275.557C339.882 276.153 339.008 276.435 337.967 276.401H336.755ZM336.755 271.443V275.131H337.847C339.315 275.131 340.049 274.501 340.049 273.24C340.049 272.042 339.345 271.443 337.936 271.443H336.755ZM351.342 280H349.666L348.746 277.442H344.81L343.934 280H342.258L345.965 270.167H347.66L351.342 280ZM348.32 276.179L346.949 272.3C346.898 272.161 346.848 271.913 346.797 271.558H346.752C346.714 271.85 346.661 272.093 346.594 272.288L345.229 276.179H348.32ZM352.256 277.962C353.009 278.576 353.896 278.883 354.916 278.883C356.219 278.883 356.871 278.436 356.871 277.543C356.871 277.285 356.799 277.053 356.655 276.845C356.511 276.638 356.316 276.458 356.071 276.306C355.83 276.149 355.349 275.899 354.63 275.557C353.745 275.133 353.128 274.704 352.776 274.268C352.425 273.832 352.25 273.32 352.25 272.732C352.25 271.886 352.584 271.219 353.252 270.732C353.921 270.246 354.776 270.002 355.817 270.002C356.803 270.002 357.548 270.123 358.051 270.364V271.926C357.446 271.507 356.691 271.297 355.785 271.297C355.205 271.297 354.738 271.414 354.382 271.646C354.027 271.879 353.849 272.199 353.849 272.605C353.849 272.973 353.978 273.276 354.236 273.513C354.499 273.75 355.049 274.067 355.887 274.465C356.864 274.922 357.539 275.381 357.912 275.842C358.284 276.299 358.47 276.826 358.47 277.423C358.47 278.312 358.149 278.991 357.505 279.46C356.862 279.93 355.971 280.165 354.833 280.165C354.414 280.165 353.949 280.114 353.437 280.013C352.924 279.911 352.531 279.776 352.256 279.606V277.962ZM359.86 277.962C360.614 278.576 361.5 278.883 362.52 278.883C363.823 278.883 364.475 278.436 364.475 277.543C364.475 277.285 364.403 277.053 364.259 276.845C364.115 276.638 363.921 276.458 363.675 276.306C363.434 276.149 362.954 275.899 362.234 275.557C361.35 275.133 360.732 274.704 360.381 274.268C360.03 273.832 359.854 273.32 359.854 272.732C359.854 271.886 360.188 271.219 360.857 270.732C361.526 270.246 362.38 270.002 363.421 270.002C364.407 270.002 365.152 270.123 365.656 270.364V271.926C365.051 271.507 364.295 271.297 363.39 271.297C362.81 271.297 362.342 271.414 361.987 271.646C361.631 271.879 361.454 272.199 361.454 272.605C361.454 272.973 361.583 273.276 361.841 273.513C362.103 273.75 362.653 274.067 363.491 274.465C364.469 274.922 365.144 275.381 365.516 275.842C365.889 276.299 366.075 276.826 366.075 277.423C366.075 278.312 365.753 278.991 365.11 279.46C364.467 279.93 363.576 280.165 362.438 280.165C362.019 280.165 361.553 280.114 361.041 280.013C360.529 279.911 360.135 279.776 359.86 279.606V277.962ZM379.995 270.167L377.285 280H375.545L373.66 273.119C373.571 272.793 373.518 272.448 373.501 272.084H373.476C373.442 272.47 373.383 272.812 373.298 273.113L371.388 280H369.623L366.843 270.167H368.519L370.359 277.359C370.44 277.677 370.491 278.024 370.512 278.4H370.556C370.573 278.121 370.641 277.77 370.759 277.347L372.797 270.167H374.346L376.263 277.417C376.33 277.679 376.385 278.003 376.428 278.388H376.453C376.47 278.075 376.527 277.74 376.625 277.385L378.402 270.167H379.995ZM380.757 275.208C380.757 273.654 381.191 272.4 382.058 271.443C382.93 270.483 384.104 270.002 385.581 270.002C386.965 270.002 388.076 270.468 388.914 271.399C389.751 272.33 390.17 273.523 390.17 274.979C390.17 276.524 389.743 277.774 388.888 278.73C388.033 279.687 386.878 280.165 385.422 280.165C384.034 280.165 382.909 279.704 382.045 278.781C381.186 277.859 380.757 276.667 380.757 275.208ZM382.356 275.1C382.356 276.183 382.634 277.076 383.188 277.778C383.742 278.477 384.491 278.826 385.435 278.826C386.425 278.826 387.195 278.493 387.746 277.829C388.296 277.16 388.571 276.259 388.571 275.125C388.571 273.965 388.304 273.047 387.771 272.37C387.242 271.693 386.487 271.354 385.505 271.354C384.549 271.354 383.785 271.706 383.213 272.408C382.642 273.111 382.356 274.008 382.356 275.1ZM399.47 280H397.686L396.086 277.321C395.773 276.797 395.488 276.439 395.229 276.249C394.976 276.058 394.684 275.963 394.354 275.963H393.528V280H392.005V270.167H395.134C396.154 270.167 396.941 270.398 397.496 270.859C398.054 271.316 398.333 271.966 398.333 272.808C398.333 273.468 398.141 274.033 397.756 274.503C397.371 274.973 396.833 275.301 396.144 275.487V275.512C396.584 275.665 397.077 276.181 397.623 277.061L399.47 280ZM393.528 271.424V274.7H394.88C395.443 274.7 395.892 274.537 396.226 274.211C396.565 273.885 396.734 273.47 396.734 272.967C396.734 271.938 396.125 271.424 394.906 271.424H393.528ZM400.676 280V270.167H403.659C407.129 270.167 408.864 271.765 408.864 274.96C408.864 276.496 408.369 277.721 407.379 278.635C406.393 279.545 405.128 280 403.583 280H400.676ZM402.199 271.475V278.692H403.539C404.698 278.692 405.608 278.369 406.268 277.721C406.932 277.069 407.265 276.16 407.265 274.992C407.265 273.845 406.949 272.973 406.319 272.376C405.688 271.776 404.774 271.475 403.577 271.475H402.199Z" fill="#484848"/>
<rect x="388" y="327" width="71" height="18" rx="9" fill="#E4E4E4"/>
<path d="M412.137 340H407.947V332.437H411.966V333.442H409.119V335.669H411.761V336.67H409.119V338.994H412.137V340ZM419.856 340H418.548L414.93 334.424C414.796 334.219 414.699 334.041 414.637 333.892H414.607C414.637 334.087 414.651 334.455 414.651 334.995V340H413.514V332.437H414.9L418.411 337.905C418.577 338.166 418.688 338.346 418.743 338.447H418.768C418.732 338.213 418.714 337.852 418.714 337.363V332.437H419.856V340ZM426.521 333.442H424.349V340H423.172V333.442H421.004V332.437H426.521V333.442ZM431.844 340H427.654V332.437H431.673V333.442H428.826V335.669H431.468V336.67H428.826V338.994H431.844V340ZM438.963 340H437.591L436.36 337.939C436.119 337.536 435.9 337.261 435.701 337.114C435.506 336.968 435.281 336.895 435.027 336.895H434.393V340H433.221V332.437H435.628C436.412 332.437 437.018 332.614 437.444 332.969C437.874 333.32 438.089 333.82 438.089 334.468C438.089 334.976 437.941 335.41 437.645 335.771C437.348 336.133 436.935 336.385 436.404 336.528V336.548C436.743 336.665 437.122 337.062 437.542 337.739L438.963 340ZM434.393 333.403V335.923H435.433C435.866 335.923 436.211 335.798 436.468 335.547C436.728 335.296 436.858 334.977 436.858 334.59C436.858 333.799 436.39 333.403 435.452 333.403H434.393Z" fill="black"/>
</g>
<defs>
<filter id="filter0_dddddd_43_18" x="-418.762" y="-162.933" width="1587.29" height="1582" filterUnits="userSpaceOnUse" color-interpolation-filters="sRGB">
<feFlood flood-opacity="0" result="BackgroundImageFix"/>
<feColorMatrix in="SourceAlpha" type="matrix" values="0 0 0 0 0 0 0 0 0 0 0 0 0 0 0 0 0 0 127 0" result="hardAlpha"/>
<feOffset/>
<feColorMatrix type="matrix" values="0 0 0 0 0 0 0 0 0 0 0 0 0 0 0 0 0 0 0.45 0"/>
<feBlend mode="normal" in2="BackgroundImageFix" result="effect1_dropShadow_43_18"/>
<feColorMatrix in="SourceAlpha" type="matrix" values="0 0 0 0 0 0 0 0 0 0 0 0 0 0 0 0 0 0 127 0" result="hardAlpha"/>
<feOffset dx="-2" dy="19"/>
<feGaussianBlur stdDeviation="20.5"/>
<feColorMatrix type="matrix" values="0 0 0 0 0 0 0 0 0 0 0 0 0 0 0 0 0 0 0.44 0"/>
<feBlend mode="normal" in2="effect1_dropShadow_43_18" result="effect2_dropShadow_43_18"/>
<feColorMatrix in="SourceAlpha" type="matrix" values="0 0 0 0 0 0 0 0 0 0 0 0 0 0 0 0 0 0 127 0" result="hardAlpha"/>
<feOffset dx="-6" dy="75"/>
<feGaussianBlur stdDeviation="37.5"/>
<feColorMatrix type="matrix" values="0 0 0 0 0 0 0 0 0 0 0 0 0 0 0 0 0 0 0.38 0"/>
<feBlend mode="normal" in2="effect2_dropShadow_43_18" result="effect3_dropShadow_43_18"/>
<feColorMatrix in="SourceAlpha" type="matrix" values="0 0 0 0 0 0 0 0 0 0 0 0 0 0 0 0 0 0 127 0" result="hardAlpha"/>
<feOffset dx="-14" dy="168"/>
<feGaussianBlur stdDeviation="50.5"/>
<feColorMatrix type="matrix" values="0 0 0 0 0 0 0 0 0 0 0 0 0 0 0 0 0 0 0.23 0"/>
<feBlend mode="normal" in2="effect3_dropShadow_43_18" result="effect4_dropShadow_43_18"/>
<feColorMatrix in="SourceAlpha" type="matrix" values="0 0 0 0 0 0 0 0 0 0 0 0 0 0 0 0 0 0 127 0" result="hardAlpha"/>
<feOffset dx="-26" dy="299"/>
<feGaussianBlur stdDeviation="60"/>
<feColorMatrix type="matrix" values="0 0 0 0 0 0 0 0 0 0 0 0 0 0 0 0 0 0 0.07 0"/>
<feBlend mode="normal" in2="effect4_dropShadow_43_18" result="effect5_dropShadow_43_18"/>
<feColorMatrix in="SourceAlpha" type="matrix" values="0 0 0 0 0 0 0 0 0 0 0 0 0 0 0 0 0 0 127 0" result="hardAlpha"/>
<feOffset dx="-40" dy="467"/>
<feGaussianBlur stdDeviation="65.5"/>
<feColorMatrix type="matrix" values="0 0 0 0 0 0 0 0 0 0 0 0 0 0 0 0 0 0 0.01 0"/>
<feBlend mode="normal" in2="effect5_dropShadow_43_18" result="effect6_dropShadow_43_18"/>
<feBlend mode="normal" in="SourceGraphic" in2="effect6_dropShadow_43_18" result="shape"/>
</filter>
<filter id="filter1_b_43_18" x="274" y="-5" width="295" height="495" filterUnits="userSpaceOnUse" color-interpolation-filters="sRGB">
<feFlood flood-opacity="0" result="BackgroundImageFix"/>
<feGaussianBlur in="BackgroundImageFix" stdDeviation="10"/>
<feComposite in2="SourceAlpha" operator="in" result="effect1_backgroundBlur_43_18"/>
<feBlend mode="normal" in="SourceGraphic" in2="effect1_backgroundBlur_43_18" result="shape"/>
</filter>
<filter id="filter2_d_43_18" x="290" y="15" width="263" height="90" filterUnits="userSpaceOnUse" color-interpolation-filters="sRGB">
<feFlood flood-opacity="0" result="BackgroundImageFix"/>
<feColorMatrix in="SourceAlpha" type="matrix" values="0 0 0 0 0 0 0 0 0 0 0 0 0 0 0 0 0 0 127 0" result="hardAlpha"/>
<feOffset dy="4"/>
<feGaussianBlur stdDeviation="2"/>
<feComposite in2="hardAlpha" operator="out"/>
<feColorMatrix type="matrix" values="0 0 0 0 0 0 0 0 0 0 0 0 0 0 0 0 0 0 0.25 0"/>
<feBlend mode="normal" in2="BackgroundImageFix" result="effect1_dropShadow_43_18"/>
<feBlend mode="normal" in="SourceGraphic" in2="effect1_dropShadow_43_18" result="shape"/>
</filter>
<linearGradient id="paint0_linear_43_18" x1="12.1209" y1="3.16616" x2="7.14762" y2="6.63185" gradientUnits="userSpaceOnUse">
<stop stop-color="white"/>
<stop offset="1" stop-opacity="0"/>
</linearGradient>
<linearGradient id="paint1_linear_43_18" x1="2.41113" y1="9.85419" x2="8.65936" y2="5.50465" gradientUnits="userSpaceOnUse">
<stop stop-color="white"/>
<stop offset="1" stop-opacity="0"/>
</linearGradient>
<linearGradient id="paint2_linear_43_18" x1="13.3147" y1="10.2712" x2="7.61217" y2="8.21543" gradientUnits="userSpaceOnUse">
<stop stop-color="white"/>
<stop offset="1" stop-opacity="0"/>
</linearGradient>
<linearGradient id="paint3_linear_43_18" x1="2.24403" y1="6.21411" x2="8.57852" y2="8.07662" gradientUnits="userSpaceOnUse">
<stop stop-color="white"/>
<stop offset="1" stop-opacity="0"/>
</linearGradient>
<clipPath id="clip0_43_18">
<rect width="846" height="471" fill="white"/>
</clipPath>
</defs>
</svg>
